<?xml version="1.0" standalone="no"?>
<!DOCTYPE svg PUBLIC "-//W3C//DTD SVG 1.1//EN" "http://www.w3.org/Graphics/SVG/1.1/DTD/svg11.dtd" >
<svg xmlns="http://www.w3.org/2000/svg" xmlns:xlink="http://www.w3.org/1999/xlink" version="1.1">
<metadata>
Created by FontForge 20160405 at Wed Dec 13 06:15:35 2017
 By www-data
</metadata>
<defs>
<font id="AA_American_Captain" horiz-adv-x="798" >
  <font-face 
    font-family="AA American Captain"
    font-weight="400"
    font-variant="small-caps"
    font-stretch="normal"
    units-per-em="1000"
    panose-1="0 0 0 0 0 0 0 0 0 0"
    ascent="750"
    descent="-250"
    x-height="725"
    cap-height="727"
    bbox="-130 -229 975 961"
    underline-thickness="50"
    underline-position="-250"
    unicode-range="U+0020-2122"
  />
<missing-glyph horiz-adv-x="125" 
 />
    <glyph glyph-name=".notdef" horiz-adv-x="125" 
 />
    <glyph glyph-name=".null" horiz-adv-x="0" 
 />
    <glyph glyph-name="nonmarkingreturn" horiz-adv-x="125" 
 />
    <glyph glyph-name="space" unicode=" " horiz-adv-x="125" 
 />
    <glyph glyph-name="exclam" unicode="!" horiz-adv-x="201" 
d="M20 724h161l-36 -534h-91zM22 67q0 -32 23 -54.5t55 -22.5t55 22.5t23 54.5t-23 55t-55 23t-55 -23t-23 -55z" />
    <glyph glyph-name="quotedbl" unicode="&#x22;" horiz-adv-x="319" 
d="M178 724h114l-23 -247h-69zM27 724h115l-22 -247h-70z" />
    <glyph glyph-name="numbersign" unicode="#" horiz-adv-x="460" 
d="M271 395h-61l-10 -63h60l11 63v0zM440 455l-11 -60h-89l-12 -63h89l-9 -60h-91l-48 -272h-69l49 272h-60l-49 -272h-69l48 272h-89l11 60h89l11 63h-90l13 60h89l48 272h69l-49 -272h60l50 272h67l-47 -272h89v0z" />
    <glyph glyph-name="dollar" unicode="$" horiz-adv-x="351" 
d="M190 260l-126 107q-26 22 -29.5 46t-3.5 56v90q0 35 20 56.5t59 21.5h39v87h65v-87h75l28 -124h-165v-52l136 -121q20 -17 26.5 -36.5t6.5 -45.5v-103q0 -67 -76 -67h-31v-88h-65v88h-78l-35 111h154v61z" />
    <glyph glyph-name="percent" unicode="%" horiz-adv-x="699" 
d="M517 178q0 -28 1 -45.5t4 -27t8 -12.5t13 -3q7 0 12.5 3t8.5 12.5t4.5 27t1.5 45.5t-1.5 45.5t-4.5 27t-8.5 12.5t-12.5 3q-8 0 -13 -3t-8 -12.5t-4 -27t-1 -45.5zM672 178q0 -59 -9 -95.5t-26 -57t-40.5 -28t-53.5 -7.5t-53.5 7.5t-40.5 28t-26 57t-9 95.5q0 58 9 95
t26 57.5t40.5 28t53.5 7.5t53.5 -7.5t40.5 -28t26 -57.5t9 -95zM132 549q0 -28 1.5 -45.5t4.5 -27t8 -12.5t13 -3q7 0 12 3t8 12.5t4.5 27t1.5 45.5t-1.5 45.5t-4.5 27t-8 12.5t-12 3q-8 0 -13 -3t-8 -12.5t-4.5 -27t-1.5 -45.5zM288 549q0 -59 -9 -95.5t-26 -57t-40.5 -28
t-53.5 -7.5t-53.5 7.5t-40.5 28t-26 57t-9 95.5q0 58 9 95t26 57.5t40.5 28t53.5 7.5t53.5 -7.5t40.5 -28t26 -57.5t9 -95zM546 732l-284 -737h-108l287 737h105z" />
    <glyph glyph-name="ampersand" unicode="&#x26;" horiz-adv-x="551" 
d="M181 363q-8 -2 -11.5 -6t-3.5 -24v-187q0 -16 7.5 -22t22.5 -6h36q14 0 29 6.5t22 24.5q-20 47 -46.5 96.5t-55.5 117.5zM272 474q26 -1 40 9t16 27t2.5 38.5t-1.5 40.5q-2 22 -12 28.5t-33 6.5h-22q-33 0 -39 -19.5t8 -46.5zM530 0h-124q-17 0 -33.5 10t-26.5 36
q-17 -20 -37 -30.5t-41.5 -15t-44.5 -5.5t-44 -1q-42 0 -70.5 7t-46 24.5t-25 47t-7.5 73.5v219q0 38 28 65.5t76 30.5l-36 69q-9 17 -12.5 38t-1.5 43t10 42t23 35q41 42 156 42q43 0 76 -6t55 -21t33.5 -41t11.5 -67v-56q0 -24 -4 -49.5t-18.5 -47t-42 -35.5t-73.5 -16
l65 -139q9 15 18 46.5t9 66.5h116q0 -22 -6 -51.5t-15.5 -60t-22.5 -59t-27 -49.5q-2 -3 -2 -6.5t11 -3.5h46z" />
    <glyph glyph-name="quotesingle" unicode="'" horiz-adv-x="169" 
d="M27 724h115l-22 -247h-70z" />
    <glyph glyph-name="parenleft" unicode="(" horiz-adv-x="277" 
d="M267 -40h-102q-62 81 -98.5 184t-36.5 219q0 118 36.5 219.5t98.5 184.5h102q-40 -94 -62 -195t-22 -209t21 -208.5t63 -194.5z" />
    <glyph glyph-name="parenright" unicode=")" horiz-adv-x="277" 
d="M10 -40q42 94 63 194.5t21 208.5t-22 209t-62 195h102q62 -83 98.5 -184.5t36.5 -219.5q0 -116 -36.5 -219t-98.5 -184h-102v0z" />
    <glyph glyph-name="asterisk" unicode="*" horiz-adv-x="387" 
d="M355 555l-53 -92l-82 81l29 -112h-111l28 112l-81 -81l-53 92l121 29l-121 29l53 92l81 -84l-28 114h111l-30 -114l83 84l53 -92l-123 -29z" />
    <glyph glyph-name="plus" unicode="+" horiz-adv-x="494" 
d="M30 414h166v166h101v-166h167v-101h-167v-166h-101v166h-166v101z" />
    <glyph glyph-name="comma" unicode="," horiz-adv-x="216" 
d="M30 67q0 32 23 55t55 23t55 -23t23 -55q0 -17 -7 -36.5t-18.5 -38t-25 -35t-26.5 -28.5h-52q10 15 18.5 31t13.5 33q-30 5 -44.5 27t-14.5 47z" />
    <glyph glyph-name="hyphen" unicode="-" horiz-adv-x="283" 
d="M40 411h213l-10 -119h-213z" />
    <glyph glyph-name="period" unicode="." horiz-adv-x="216" 
d="M30 67q0 32 23 55t55 23t55 -23t23 -55t-23 -54.5t-55 -22.5t-55 22.5t-23 54.5z" />
    <glyph glyph-name="slash" unicode="/" horiz-adv-x="363" 
d="M343 732l-219 -737h-104l218 737h105z" />
    <glyph glyph-name="zero" unicode="0" horiz-adv-x="434" 
d="M189 598q-13 0 -13 -14v-442q0 -8 2.5 -11.5t11.5 -3.5h53q9 0 11.5 3.5t2.5 11.5v442q0 14 -13 14h-55zM30 625q0 43 24 71.5t74 28.5h178q50 0 74 -28.5t24 -71.5v-525q0 -43 -24 -71.5t-74 -28.5h-178q-50 0 -74 28.5t-24 71.5v525z" />
    <glyph glyph-name="one" unicode="1" horiz-adv-x="292" 
d="M71 725h155v-590h49v-135h-245v135h47v455h-60z" />
    <glyph glyph-name="two" unicode="2" horiz-adv-x="393" 
d="M363 451q0 -28 -9.5 -44t-34.5 -33l-137 -109q-7 -5 -7 -17v-113h175l-26 -135h-294v261q0 35 10 59t37 41l137 105q7 5 8.5 8t1.5 8v95q0 13 -14 13h-177l25 135h220q36 0 60.5 -23t24.5 -66v-185z" />
    <glyph glyph-name="three" unicode="3" horiz-adv-x="362" 
d="M45 725h185q56 0 77 -22.5t21 -72.5v-201q0 -25 -10.5 -43t-45.5 -21q37 0 48.5 -21.5t11.5 -50.5v-181q0 -60 -25 -86t-88 -26h-173l-25 135h145q10 0 15 2.5t5 15.5v119q0 8 -3 13t-15 5h-111v125h109q12 0 16 4t4 16v137q0 11 -4.5 14.5t-12.5 3.5h-149z" />
    <glyph glyph-name="four" unicode="4" horiz-adv-x="454" 
d="M187 725h202v-478h40v-115h-40v-132h-143v132h-221v164l162 404v25zM246 247v279l-82 -237v-42h82z" />
    <glyph glyph-name="five" unicode="5" horiz-adv-x="387" 
d="M62 0l-25 135h162q12 0 12 11v163q0 10 -10 10h-133l-38 43v362h287l25 -134h-170v-154h109q33 0 54.5 -20.5t21.5 -49.5v-257q0 -60 -25 -84.5t-87 -24.5h-183z" />
    <glyph glyph-name="six" unicode="6" horiz-adv-x="427" 
d="M176 139q0 -12 11 -12h59q11 0 11 12v198q0 10 -9 10h-72v-208zM143 0q-63 0 -88 26t-25 86v525q0 39 23.5 63.5t62.5 24.5h224l25 -135h-177q-12 0 -12 -14v-122h145q36 0 56 -18.5t20 -58.5v-265q0 -60 -25 -86t-88 -26h-141z" />
    <glyph glyph-name="seven" unicode="7" horiz-adv-x="380" 
d="M35 725h335l-27 -90l-163 -635h-151l160 590h-179z" />
    <glyph glyph-name="eight" unicode="8" horiz-adv-x="451" 
d="M199 598q-17 0 -17 -16v-134q0 -11 5 -14.5t16 -3.5h46q11 0 15.5 3.5t4.5 14.5v134q0 8 -3 12t-14 4h-53zM249 126q9 0 14.5 3t5.5 17v157q0 8 -4 12.5t-15 4.5h-49q-19 0 -19 -17v-157q0 -14 5.5 -17t14.5 -3h47zM413 465q0 -28 -9 -49.5t-40 -35.5q31 -7 44 -31.5
t13 -50.5v-184q0 -60 -26.5 -87t-89.5 -27h-159q-63 0 -89.5 27t-26.5 87v184q0 13 4 26.5t11.5 25t18.5 19.5t26 11q-29 10 -39 34.5t-10 50.5v149q0 60 28.5 85.5t91.5 25.5h132q63 0 91.5 -25.5t28.5 -85.5v-149z" />
    <glyph glyph-name="nine" unicode="9" horiz-adv-x="428" 
d="M252 586q0 12 -11 12h-59q-11 0 -11 -12v-214q0 -10 9 -10h72v224zM398 112q0 -60 -25 -86t-88 -26h-208l-25 135h188q12 0 12 14v103h-146q-33 0 -54.5 19.5t-21.5 59.5v305q0 43 24.5 66t60.5 23h198q36 0 60.5 -23t24.5 -66v-524z" />
    <glyph glyph-name="colon" unicode=":" horiz-adv-x="216" 
d="M30 444q0 32 23 55t55 23t55 -23t23 -55t-23 -54.5t-55 -22.5t-55 22.5t-23 54.5zM30 70q0 32 23 55t55 23t55 -23t23 -55t-23 -54.5t-55 -22.5t-55 22.5t-23 54.5z" />
    <glyph glyph-name="semicolon" unicode=";" horiz-adv-x="216" 
d="M30 444q0 32 23 55t55 23t55 -23t23 -55t-23 -54.5t-55 -22.5t-55 22.5t-23 54.5zM30 67q0 32 23 55t55 23t55 -23t23 -55q0 -17 -7 -36.5t-18.5 -38t-25 -35t-26.5 -28.5h-52q10 15 18.5 31t13.5 33q-30 5 -44.5 27t-14.5 47z" />
    <glyph glyph-name="less" unicode="&#x3c;" horiz-adv-x="421" 
d="M30 318v91l356 191v-119l-246 -117l246 -118v-119z" />
    <glyph glyph-name="equal" unicode="=" horiz-adv-x="427" 
d="M35 328h357v-97h-357v97zM35 496h357v-96h-357v96z" />
    <glyph glyph-name="greater" unicode="&#x3e;" horiz-adv-x="421" 
d="M35 127v119l246 118l-246 117v119l356 -191v-91z" />
    <glyph glyph-name="question" unicode="?" horiz-adv-x="364" 
d="M192 577q0 13 -13 13h-169l25 135h215q38 0 61 -22.5t23 -60.5v-263q0 -32 -19 -54t-60 -22h-77v-113h-120v192q0 17 13 29t29 12h78q10 0 12 3t2 11v140zM42 67q0 -32 23 -54.5t55 -22.5t55 22.5t23 54.5t-23 55t-55 23t-55 -23t-23 -55z" />
    <glyph glyph-name="at" unicode="@" horiz-adv-x="556" 
d="M526 172h-238q-28 0 -49 16.5t-21 48.5v259q0 27 17.5 43t40.5 16h139v34q0 14 -4 19t-19 5h-204q-21 0 -21 -22v-445q0 -18 15 -18h291l-26 -128h-328q-38 0 -63.5 19t-25.5 67v556q0 36 22 59.5t62 23.5h341q33 0 52 -19t19 -48v-486zM405 464h-51q-14 0 -14 -14v-172
q0 -6 4.5 -9t9.5 -3h51v198z" />
    <glyph glyph-name="A" unicode="A" horiz-adv-x="437" 
d="M169 90l-13 -90h-146l131 725h155l131 -725h-146l-13 90h-99zM185 205h67l-33 257z" />
    <glyph glyph-name="B" unicode="B" horiz-adv-x="436" 
d="M174 598v-190h68q8 0 13 4.5t5 14.5v157q0 14 -13 14h-73zM262 277q0 12 -6 16.5t-16 4.5h-66v-171h73q9 0 12 3.5t3 11.5v135zM399 438q0 -27 -10.5 -46.5t-39.5 -27.5q30 -2 43.5 -21t13.5 -43v-188q0 -60 -25 -86t-88 -26h-263v725h283q43 0 64.5 -24t21.5 -64v-199z
" />
    <glyph glyph-name="C" unicode="C" horiz-adv-x="351" 
d="M143 0q-63 0 -88 26t-25 86v524q0 43 24.5 66t60.5 23h191l25 -135h-139q-13 0 -13 -14v-427q0 -14 13 -14h139l-26 -135h-162z" />
    <glyph glyph-name="D" unicode="D" horiz-adv-x="430" 
d="M174 598v-471h68q9 0 11.5 3.5t2.5 11.5v442q0 14 -13 14h-69zM400 112q0 -60 -25 -86t-88 -26h-257v725h284q43 0 64.5 -24t21.5 -64v-525z" />
    <glyph glyph-name="E" unicode="E" horiz-adv-x="357" 
d="M30 725h282l25 -135h-158v-172h120v-125h-120v-158h152l-25 -135h-276v725z" />
    <glyph glyph-name="F" unicode="F" horiz-adv-x="352" 
d="M30 725h282l25 -135h-158v-172h120v-125h-120v-293h-149v725z" />
    <glyph glyph-name="G" unicode="G" horiz-adv-x="423" 
d="M30 637q0 40 21.5 64t64.5 24h207l25 -135h-159q-13 0 -13 -14v-430q0 -14 13 -14h66v286h141v-418h-253q-63 0 -88 26t-25 86v525z" />
    <glyph glyph-name="H" unicode="H" horiz-adv-x="435" 
d="M405 0h-148v290h-79v-290h-148v725h148v-310h79v310h148v-725z" />
    <glyph glyph-name="I" unicode="I" horiz-adv-x="205" 
d="M30 725h145v-725h-145v725z" />
    <glyph glyph-name="J" unicode="J" horiz-adv-x="423" 
d="M27 418h141v-274q0 -14 13 -14h53q13 0 13 15v445h-157l25 135h278v-621q0 -43 -25 -73.5t-73 -30.5h-172q-43 0 -69.5 25t-26.5 68v325z" />
    <glyph glyph-name="K" unicode="K" horiz-adv-x="434" 
d="M178 414h22l74 311h150l-87 -334l86 -391h-159l-57 299h-29v-299h-148v725h148v-311v0z" />
    <glyph glyph-name="L" unicode="L" horiz-adv-x="340" 
d="M30 725h149v-590h146l-25 -135h-270v725z" />
    <glyph glyph-name="M" unicode="M" horiz-adv-x="525" 
d="M171 342v-342h-141v725h153l79 -306l79 306h154v-725h-141v342l-92 -290z" />
    <glyph glyph-name="N" unicode="N" horiz-adv-x="421" 
d="M30 725h138l74 -291v291h149v-725h-149l-78 303v-303h-134v725z" />
    <glyph glyph-name="O" unicode="O" horiz-adv-x="436" 
d="M189 598q-13 0 -13 -14v-442q0 -8 2.5 -11.5t11.5 -3.5h55q9 0 11.5 3.5t2.5 11.5v442q0 14 -13 14h-57zM406 103q0 -21 -5 -39.5t-17 -32.5t-32 -22.5t-50 -8.5h-168q-30 0 -50 8.5t-32 22.5t-17 32.5t-5 39.5v528q0 43 23.5 68.5t74.5 25.5h180q51 0 74.5 -25.5
t23.5 -68.5v-528z" />
    <glyph glyph-name="P" unicode="P" horiz-adv-x="428" 
d="M174 598v-285h72q9 0 11.5 3.5t2.5 11.5v256q0 14 -13 14h-73zM315 725q43 0 64.5 -24t21.5 -64v-347q0 -21 -4.5 -38.5t-16.5 -30.5t-32 -20.5t-50 -7.5h-124v-193h-144v725h285z" />
    <glyph glyph-name="Q" unicode="Q" horiz-adv-x="439" 
d="M190 598q-14 0 -14 -15v-441q0 -8 2.5 -11.5t11.5 -3.5h58q9 0 11.5 3.5t2.5 11.5v442q0 14 -13 14h-59zM311 725q51 0 74.5 -25.5t23.5 -68.5v-519q0 -60 -25 -86t-88 -26h-19v-58h-116v58h-18q-63 0 -88 26t-25 86v519q0 43 23.5 68.5t74.5 25.5h183z" />
    <glyph glyph-name="R" unicode="R" horiz-adv-x="435" 
d="M175 598v-250h71q14 0 14 15v220q0 15 -14 15h-71zM403 295q0 -24 -16.5 -44t-48.5 -20l76 -231h-150l-70 231h-19v-231h-145v725h275q51 0 74.5 -25.5t23.5 -68.5v-336z" />
    <glyph glyph-name="S" unicode="S" horiz-adv-x="386" 
d="M66 0l-26 135h156q17 0 17 15v132q0 15 -6 18t-21 3h-75q-16 0 -30.5 2.5t-26 11.5t-18 25t-6.5 43v246q0 43 23.5 68.5t74.5 25.5h200l25 -135h-164q-18 0 -18 -16v-132q0 -11 5.5 -15t16.5 -4h91q35 0 53.5 -16.5t18.5 -57.5v-239q0 -60 -24.5 -85t-86.5 -25h-179z" />
    <glyph glyph-name="T" unicode="T" horiz-adv-x="362" 
d="M316 725l36 -135h-97v-590h-148v590h-97l38 135h268z" />
    <glyph glyph-name="U" unicode="U" horiz-adv-x="435" 
d="M143 0q-63 0 -88 26t-25 86v613h148v-582q0 -8 2.5 -12t11.5 -4h51q9 0 11.5 4t2.5 12v582h148v-613q0 -60 -25 -86t-88 -26h-149z" />
    <glyph glyph-name="V" unicode="V" horiz-adv-x="439" 
d="M282 725h147l-134 -725h-151l-134 725h147l13 -93l49 -375l50 377z" />
    <glyph glyph-name="W" unicode="W" horiz-adv-x="631" 
d="M473 725h148l-114 -725h-132l-60 378l-59 -378h-132l-114 725h148l46 -422l59 422h105l58 -422z" />
    <glyph glyph-name="X" unicode="X" horiz-adv-x="425" 
d="M312 378l103 -378h-147l-56 255l-55 -255h-147l103 378l-99 347h144l54 -255l56 255h143z" />
    <glyph glyph-name="Y" unicode="Y" horiz-adv-x="451" 
d="M302 0h-153v184l-139 541h150l65 -342l66 342h150l-139 -541v-184z" />
    <glyph glyph-name="Z" unicode="Z" horiz-adv-x="371" 
d="M205 135h136l-25 -135h-306l163 590h-151l25 135h314z" />
    <glyph glyph-name="bracketleft" unicode="[" horiz-adv-x="199" 
d="M204 798v-43h-46v-781h46v-45h-174v869h174z" />
    <glyph glyph-name="backslash" unicode="\" horiz-adv-x="363" 
d="M125 732l218 -737h-104l-219 737h105z" />
    <glyph glyph-name="bracketright" unicode="]" horiz-adv-x="199" 
d="M169 798v-869h-174v45h46v781h-46v43h174z" />
    <glyph glyph-name="asciicircum" unicode="^" horiz-adv-x="700" 
d="M350 638l-171 -326h-139l251 435h118l251 -435h-139z" />
    <glyph glyph-name="underscore" unicode="_" horiz-adv-x="382" 
d="M30 -19h322v-114h-322v114z" />
    <glyph glyph-name="grave" unicode="`" horiz-adv-x="385" 
d="M50 911h155l130 -121h-106z" />
    <glyph glyph-name="a" unicode="a" horiz-adv-x="437" 
d="M169 90l-13 -90h-146l131 725h155l131 -725h-146l-13 90h-99zM185 205h67l-33 257z" />
    <glyph glyph-name="b" unicode="b" horiz-adv-x="436" 
d="M174 598v-190h68q8 0 13 4.5t5 14.5v157q0 14 -13 14h-73zM262 277q0 12 -6 16.5t-16 4.5h-66v-171h73q9 0 12 3.5t3 11.5v135zM399 438q0 -27 -10.5 -46.5t-39.5 -27.5q30 -2 43.5 -21t13.5 -43v-188q0 -60 -25 -86t-88 -26h-263v725h283q43 0 64.5 -24t21.5 -64v-199z
" />
    <glyph glyph-name="c" unicode="c" horiz-adv-x="351" 
d="M143 0q-63 0 -88 26t-25 86v524q0 43 24.5 66t60.5 23h191l25 -135h-139q-13 0 -13 -14v-427q0 -14 13 -14h139l-26 -135h-162z" />
    <glyph glyph-name="d" unicode="d" horiz-adv-x="430" 
d="M174 598v-471h68q9 0 11.5 3.5t2.5 11.5v442q0 14 -13 14h-69zM400 112q0 -60 -25 -86t-88 -26h-257v725h284q43 0 64.5 -24t21.5 -64v-525z" />
    <glyph glyph-name="e" unicode="e" horiz-adv-x="357" 
d="M30 725h282l25 -135h-158v-172h120v-125h-120v-158h152l-25 -135h-276v725z" />
    <glyph glyph-name="f" unicode="f" horiz-adv-x="352" 
d="M30 725h282l25 -135h-158v-172h120v-125h-120v-293h-149v725z" />
    <glyph glyph-name="g" unicode="g" horiz-adv-x="423" 
d="M30 637q0 40 21.5 64t64.5 24h207l25 -135h-159q-13 0 -13 -14v-430q0 -14 13 -14h66v286h141v-418h-253q-63 0 -88 26t-25 86v525z" />
    <glyph glyph-name="h" unicode="h" horiz-adv-x="435" 
d="M405 0h-148v290h-79v-290h-148v725h148v-310h79v310h148v-725z" />
    <glyph glyph-name="i" unicode="i" horiz-adv-x="205" 
d="M30 725h145v-725h-145v725z" />
    <glyph glyph-name="j" unicode="j" horiz-adv-x="423" 
d="M27 418h141v-274q0 -14 13 -14h53q13 0 13 15v445h-157l25 135h278v-621q0 -43 -25 -73.5t-73 -30.5h-172q-43 0 -69.5 25t-26.5 68v325z" />
    <glyph glyph-name="k" unicode="k" horiz-adv-x="434" 
d="M178 414h22l74 311h150l-87 -334l86 -391h-159l-57 299h-29v-299h-148v725h148v-311v0z" />
    <glyph glyph-name="l" unicode="l" horiz-adv-x="340" 
d="M30 725h149v-590h146l-25 -135h-270v725z" />
    <glyph glyph-name="m" unicode="m" horiz-adv-x="525" 
d="M171 342v-342h-141v725h153l79 -306l79 306h154v-725h-141v342l-92 -290z" />
    <glyph glyph-name="n" unicode="n" horiz-adv-x="421" 
d="M30 725h138l74 -291v291h149v-725h-149l-78 303v-303h-134v725z" />
    <glyph glyph-name="o" unicode="o" horiz-adv-x="436" 
d="M189 598q-13 0 -13 -14v-442q0 -8 2.5 -11.5t11.5 -3.5h55q9 0 11.5 3.5t2.5 11.5v442q0 14 -13 14h-57zM406 103q0 -21 -5 -39.5t-17 -32.5t-32 -22.5t-50 -8.5h-168q-30 0 -50 8.5t-32 22.5t-17 32.5t-5 39.5v528q0 43 23.5 68.5t74.5 25.5h180q51 0 74.5 -25.5
t23.5 -68.5v-528z" />
    <glyph glyph-name="p" unicode="p" horiz-adv-x="428" 
d="M174 598v-285h72q9 0 11.5 3.5t2.5 11.5v256q0 14 -13 14h-73zM315 725q43 0 64.5 -24t21.5 -64v-347q0 -21 -4.5 -38.5t-16.5 -30.5t-32 -20.5t-50 -7.5h-124v-193h-144v725h285z" />
    <glyph glyph-name="q" unicode="q" horiz-adv-x="439" 
d="M190 598q-14 0 -14 -15v-441q0 -8 2.5 -11.5t11.5 -3.5h58q9 0 11.5 3.5t2.5 11.5v442q0 14 -13 14h-59zM311 725q51 0 74.5 -25.5t23.5 -68.5v-519q0 -60 -25 -86t-88 -26h-19v-58h-116v58h-18q-63 0 -88 26t-25 86v519q0 43 23.5 68.5t74.5 25.5h183z" />
    <glyph glyph-name="r" unicode="r" horiz-adv-x="435" 
d="M175 598v-250h71q14 0 14 15v220q0 15 -14 15h-71zM403 295q0 -24 -16.5 -44t-48.5 -20l76 -231h-150l-70 231h-19v-231h-145v725h275q51 0 74.5 -25.5t23.5 -68.5v-336z" />
    <glyph glyph-name="s" unicode="s" horiz-adv-x="386" 
d="M66 0l-26 135h156q17 0 17 15v132q0 15 -6 18t-21 3h-75q-16 0 -30.5 2.5t-26 11.5t-18 25t-6.5 43v246q0 43 23.5 68.5t74.5 25.5h200l25 -135h-164q-18 0 -18 -16v-132q0 -11 5.5 -15t16.5 -4h91q35 0 53.5 -16.5t18.5 -57.5v-239q0 -60 -24.5 -85t-86.5 -25h-179z" />
    <glyph glyph-name="t" unicode="t" horiz-adv-x="362" 
d="M316 725l36 -135h-97v-590h-148v590h-97l38 135h268z" />
    <glyph glyph-name="u" unicode="u" horiz-adv-x="435" 
d="M143 0q-63 0 -88 26t-25 86v613h148v-582q0 -8 2.5 -12t11.5 -4h51q9 0 11.5 4t2.5 12v582h148v-613q0 -60 -25 -86t-88 -26h-149z" />
    <glyph glyph-name="v" unicode="v" horiz-adv-x="439" 
d="M282 725h147l-134 -725h-151l-134 725h147l13 -93l49 -375l50 377z" />
    <glyph glyph-name="w" unicode="w" horiz-adv-x="631" 
d="M473 725h148l-114 -725h-132l-60 378l-59 -378h-132l-114 725h148l46 -422l59 422h105l58 -422z" />
    <glyph glyph-name="x" unicode="x" horiz-adv-x="425" 
d="M312 378l103 -378h-147l-56 255l-55 -255h-147l103 378l-99 347h144l54 -255l56 255h143z" />
    <glyph glyph-name="y" unicode="y" horiz-adv-x="451" 
d="M302 0h-153v184l-139 541h150l65 -342l66 342h150l-139 -541v-184z" />
    <glyph glyph-name="z" unicode="z" horiz-adv-x="371" 
d="M205 135h136l-25 -135h-306l163 590h-151l25 135h314z" />
    <glyph glyph-name="braceleft" unicode="{" horiz-adv-x="261" 
d="M0 386q33 1 49.5 14.5t22.5 34.5t5 45.5t-2 47.5q-2 57 -6 107t7 87t47.5 58t115.5 21h42v-46q-36 1 -51.5 -23t-18.5 -59t0.5 -73t4.5 -65q1 -26 -1.5 -54t-12 -53t-27 -42.5t-46.5 -21.5q29 -5 46.5 -22.5t27 -42t12 -53t1.5 -53.5q-1 -27 -4.5 -65t-0.5 -73
t18.5 -59.5t51.5 -23.5v-44h-42q-79 0 -115.5 21t-47.5 57.5t-7 86t6 107.5q1 22 2 46.5t-5 45.5t-22.5 34.5t-49.5 14.5v45z" />
    <glyph glyph-name="bar" unicode="|" horiz-adv-x="205" 
d="M165 747v-976h-125v976h125z" />
    <glyph glyph-name="braceright" unicode="}" horiz-adv-x="261" 
d="M261 341q-33 -1 -49.5 -14.5t-22.5 -34.5t-5 -45.5t2 -46.5q2 -58 6 -107.5t-8 -86t-48.5 -57.5t-115.5 -21h-40v44q36 -1 51.5 23.5t18.5 59.5t-1 73t-5 65q-1 25 1.5 53.5t12 53t27 42t46.5 22.5q-29 4 -46.5 21.5t-27 42.5t-12 53t-1.5 54q1 27 5 65t1 73t-18.5 59
t-51.5 23v46h40q79 0 115.5 -21t48.5 -58t8 -87t-6 -107q-1 -23 -2 -47.5t5 -45.5t22.5 -34.5t49.5 -14.5v-45z" />
    <glyph glyph-name="asciitilde" unicode="~" horiz-adv-x="426" 
d="M395 441q6 -72 -21.5 -117.5t-89.5 -45.5q-32 0 -52.5 12.5t-40.5 25.5q-15 9 -30.5 13t-29 0.5t-22.5 -15.5t-9 -35h-69q-3 77 30 120t84 43q22 0 41 -8.5t35.5 -18.5t31.5 -18.5t29 -8.5q18 0 32 10.5t12 42.5h69z" />
    <glyph glyph-name="Zcaron" horiz-adv-x="371" 
d="M205 135h136l-25 -135h-306l163 592h-151l25 135h314zM140 762l-112 131h116l54 -72l54 72h118l-113 -131h-117z" />
    <glyph glyph-name="Zcaron" unicode="&#x17d;" horiz-adv-x="371" 
d="M205 135h136l-25 -135h-306l163 592h-151l25 135h314zM140 762l-112 131h116l54 -72l54 72h118l-113 -131h-117z" />
    <glyph glyph-name="zcaron" 
d="M537 242q-154 -39 -310 0q10 -17 24.5 -35t34 -34t43.5 -26t53 -10q28 0 52 10t43.5 26t34.5 34t25 35zM600 340h-436l53 -84q83 -20 164.5 -19.5t164.5 19.5zM323 453q-13 27 -21 56t-25 52q-3 4 -12.5 0t-20 -10.5t-18 -13t-5.5 -8.5l72 -90q1 -2 6.5 -0.5t11 4
t9.5 5.5t3 5zM419 371l-37 89l-36 -89h73zM542 529q1 2 -6 8.5t-17 13t-19.5 10.5t-12.5 0q-18 -23 -26.5 -52t-19.5 -56q-2 -2 2 -5t10 -5.5t11 -4t7 0.5zM657 371q0 -57 -21.5 -107t-59 -87.5t-87.5 -59t-107 -21.5t-107 21.5t-87.5 59t-59.5 87.5t-22 107t22 107
t59.5 87.5t87.5 59t107 21.5t107 -21.5t87.5 -59t59 -87.5t21.5 -107zM677 371q0 61 -23 115t-63 94t-94 63.5t-115 23.5t-115 -23.5t-94.5 -63.5t-64 -94t-23.5 -115t23.5 -114.5t64 -94t94.5 -64t115 -23.5t115 23.5t94 64t63 94t23 114.5zM707 104h-26v-69h-19v69h-25v16
h70v-16zM724 371q0 -71 -27 -133t-73.5 -109t-109 -74t-132.5 -27q-71 0 -133 27t-108.5 74t-73.5 109t-27 133t27 133.5t73.5 109t108.5 73.5t133 27q70 0 132.5 -27t109 -73.5t73.5 -109t27 -133.5zM796 35h-15v69l-17 -69h-16l-17 69v-69h-16v85h25l17 -66l14 66h25v-85z
" />
    <glyph glyph-name="zcaron" unicode="&#x17e;" 
d="M537 242q-154 -39 -310 0q10 -17 24.5 -35t34 -34t43.5 -26t53 -10q28 0 52 10t43.5 26t34.5 34t25 35zM600 340h-436l53 -84q83 -20 164.5 -19.5t164.5 19.5zM323 453q-13 27 -21 56t-25 52q-3 4 -12.5 0t-20 -10.5t-18 -13t-5.5 -8.5l72 -90q1 -2 6.5 -0.5t11 4
t9.5 5.5t3 5zM419 371l-37 89l-36 -89h73zM542 529q1 2 -6 8.5t-17 13t-19.5 10.5t-12.5 0q-18 -23 -26.5 -52t-19.5 -56q-2 -2 2 -5t10 -5.5t11 -4t7 0.5zM657 371q0 -57 -21.5 -107t-59 -87.5t-87.5 -59t-107 -21.5t-107 21.5t-87.5 59t-59.5 87.5t-22 107t22 107
t59.5 87.5t87.5 59t107 21.5t107 -21.5t87.5 -59t59 -87.5t21.5 -107zM677 371q0 61 -23 115t-63 94t-94 63.5t-115 23.5t-115 -23.5t-94.5 -63.5t-64 -94t-23.5 -115t23.5 -114.5t64 -94t94.5 -64t115 -23.5t115 23.5t94 64t63 94t23 114.5zM707 104h-26v-69h-19v69h-25v16
h70v-16zM724 371q0 -71 -27 -133t-73.5 -109t-109 -74t-132.5 -27q-71 0 -133 27t-108.5 74t-73.5 109t-27 133t27 133.5t73.5 109t108.5 73.5t133 27q70 0 132.5 -27t109 -73.5t73.5 -109t27 -133.5zM796 35h-15v69l-17 -69h-16l-17 69v-69h-16v85h25l17 -66l14 66h25v-85z
" />
    <glyph glyph-name="uni00A0" unicode="&#xa0;" horiz-adv-x="500" 
 />
    <glyph glyph-name="exclamdown" unicode="&#xa1;" horiz-adv-x="201" 
d="M20 -170h161l-36 535h-91zM22 488q0 32 23 54.5t55 22.5t55 -22.5t23 -54.5t-23 -55t-55 -23t-55 23t-23 55z" />
    <glyph glyph-name="cent" unicode="&#xa2;" horiz-adv-x="305" 
d="M101 135q-74 0 -74 75v307q0 75 74 75h27v135h69v-135h68l25 -135h-131q-12 0 -12 -13v-161q0 -13 12 -13h131l-25 -135h-68v-135h-69v135h-27z" />
    <glyph glyph-name="sterling" unicode="&#xa3;" horiz-adv-x="394" 
d="M56 635q0 48 27 70t62 22h197l25 -135h-151q-14 0 -14 -15v-168h146l-23 -102h-123v-172h177l-26 -135h-321v135h24v172h-36l13 102h23v226v0z" />
    <glyph glyph-name="currency" unicode="&#xa4;" horiz-adv-x="454" 
d="M170 363q0 -51 9.5 -79.5t47.5 -28.5q37 0 46.5 28.5t9.5 79.5t-9.5 80t-46.5 29q-38 0 -47.5 -29t-9.5 -80zM392 363q0 -33 -4 -66t-15 -65l51 -47l-57 -59l-52 47q-24 -9 -43.5 -12t-44.5 -3t-44.5 3t-43.5 12l-52 -47l-57 59l50 47q-10 32 -14 65t-4 66q0 34 4 66.5
t14 64.5l-50 47l57 59l52 -46q24 8 43.5 11t44.5 3t44.5 -3t43.5 -11l52 46l57 -59l-51 -47q11 -32 15 -64.5t4 -66.5z" />
    <glyph glyph-name="yen" unicode="&#xa5;" horiz-adv-x="492" 
d="M73 192h99v37h-111l13 89h82l-146 409h153l83 -282l83 282h153l-146 -409h98l-13 -89h-103v-37h115l-12 -89h-103v-103h-146v103h-111z" />
    <glyph glyph-name="brokenbar" unicode="&#xa6;" horiz-adv-x="205" 
d="M165 -229h-125v391h125v-391zM165 356h-125v391h125v-391z" />
    <glyph glyph-name="section" unicode="&#xa7;" horiz-adv-x="418" 
d="M273 333q0 30 -13 51t-30 34h-49q-23 0 -28.5 -7t-5.5 -21v-29q0 -19 11 -30q3 -4 10 -12t12 -12h76q11 0 14 9t3 17zM388 319q0 -16 -5.5 -31.5t-18 -28t-33.5 -20.5t-51 -8h-7q17 -20 26 -57.5t9 -82.5q0 -16 -4.5 -32t-16 -29t-31 -21.5t-50.5 -8.5h-154v99h120
q11 0 14 4.5t3 12.5q0 32 -12 51t-29.5 33t-38 25t-38.5 26.5t-29.5 38.5t-11.5 60v69q0 16 8 31.5t22.5 27.5t36 19.5t48.5 7.5q-14 13 -23.5 30t-9.5 35v70q0 10 4.5 24t15 27.5t28.5 23.5t46 12h153v-89h-98q-22 0 -26.5 -8.5t-4.5 -22.5v-22q0 -9 1.5 -16t6.5 -14
q8 -8 18 -15.5t21 -15.5q18 -11 38 -22t36 -32t26.5 -56t10.5 -95z" />
    <glyph glyph-name="dieresis" unicode="&#xa8;" horiz-adv-x="501" 
d="M78 864q0 31 21 53t53 22q31 0 52 -22t21 -53t-21 -53t-52 -22q-32 0 -53 22t-21 53zM276 864q0 31 21 53t52 22t52.5 -22t21.5 -53t-21.5 -53t-52.5 -22t-52 22t-21 53z" />
    <glyph glyph-name="copyright" unicode="&#xa9;" horiz-adv-x="800" 
d="M401 727q74 0 140.5 -27.5t116.5 -76t79.5 -115.5t29.5 -146q0 -80 -29.5 -147.5t-79.5 -116.5t-116.5 -76.5t-140.5 -27.5q-75 0 -141.5 27.5t-117 76.5t-80 116.5t-29.5 147.5q0 79 29.5 146t80 115.5t117 76t141.5 27.5zM401 665q-62 0 -116 -23t-93.5 -63.5t-62 -96
t-22.5 -120.5q0 -66 22.5 -122t62 -96.5t93.5 -63.5t116 -23q61 0 114.5 23t93 63.5t62 96.5t22.5 122q0 65 -22.5 120.5t-62 96t-93 63.5t-114.5 23zM592 293q-7 -36 -23.5 -65t-40 -49t-53 -31t-62.5 -11q-49 0 -88.5 17.5t-67.5 47.5t-43.5 71.5t-15.5 89.5t14.5 89
t42 70.5t67 46.5t88.5 17q34 0 65 -10t55 -29.5t40 -47.5t21 -65h-65q-8 40 -39 64.5t-76 24.5q-34 0 -60 -12.5t-43.5 -34t-26.5 -50.5t-9 -62t10 -62.5t28 -52t44 -36t59 -13.5q46 0 76.5 25.5t36.5 67.5h66z" />
    <glyph glyph-name="ordfeminine" unicode="&#xaa;" horiz-adv-x="289" 
d="M126 647q-8 0 -8 -8v-178q0 -7 8 -7h45v193h-45zM259 369h-88v24l-20 -24h-73q-22 0 -35 12t-13 36v260q0 50 50 50h179v-358z" />
    <glyph glyph-name="guillemotleft" unicode="&#xab;" horiz-adv-x="435" 
d="M306 471h119l-118 -198l118 -198h-119l-121 198zM132 471h122l-121 -198l121 -198h-122l-117 198z" />
    <glyph glyph-name="logicalnot" unicode="&#xac;" horiz-adv-x="438" 
d="M40 451h368v-256h-129v137h-249z" />
    <glyph glyph-name="uni00AD" unicode="&#xad;" horiz-adv-x="333" 
d="M40 411h263l-10 -119h-263z" />
    <glyph glyph-name="registered" unicode="&#xae;" horiz-adv-x="800" 
d="M401 727q74 0 140.5 -27.5t116.5 -76t79.5 -115.5t29.5 -146q0 -80 -29.5 -147.5t-79.5 -116.5t-116.5 -76.5t-140.5 -27.5q-75 0 -141.5 27.5t-117 76.5t-80 116.5t-29.5 147.5q0 79 29.5 146t80 115.5t117 76t141.5 27.5zM401 665q-62 0 -116 -23t-93.5 -63.5t-62 -96
t-22.5 -120.5q0 -66 22.5 -122t62 -96.5t93.5 -63.5t116 -23q61 0 114.5 23t93 63.5t62 96.5t22.5 122q0 65 -22.5 120.5t-62 96t-93 63.5t-114.5 23zM323 150h-62v423h159q73 0 109 -29t36 -92q-2 -57 -30.5 -83.5t-75.5 -32.5l119 -186h-71l-111 184h-73v-184zM400 385
q20 0 38.5 1.5t33 9t23 21.5t8.5 40q0 21 -8 33.5t-21.5 19.5t-30 9.5t-32.5 2.5h-88v-137h77z" />
    <glyph glyph-name="macron" unicode="&#xaf;" horiz-adv-x="431" 
d="M73 856h285l23 -92h-331z" />
    <glyph glyph-name="degree" unicode="&#xb0;" horiz-adv-x="312" 
d="M30 614q0 27 10.5 51t28 41.5t41.5 28t51 10.5t51 -10.5t41.5 -28t28 -41.5t10.5 -51t-10.5 -51t-28 -41.5t-41.5 -28t-51 -10.5t-51 10.5t-41.5 28t-28 41.5t-10.5 51zM111 613q0 -21 14 -35t35 -14t35.5 14t14.5 35t-14.5 35.5t-35.5 14.5t-35 -14.5t-14 -35.5z" />
    <glyph glyph-name="plusminus" unicode="&#xb1;" horiz-adv-x="477" 
d="M30 423h160v168h99v-168h158v-98h-158v-125h158v-99h-417v99h160v125h-160v98z" />
    <glyph glyph-name="twosuperior" unicode="&#xb2;" horiz-adv-x="263" 
d="M243 542q0 -19 -6 -29.5t-23 -21.5l-92 -73q-5 -4 -5 -12v-76h117l-17 -90h-197v175q0 23 6.5 39t25.5 28l91 70q7 5 7 11v65q0 9 -9 9h-119l17 90h139q65 0 65 -65v-120z" />
    <glyph glyph-name="threesuperior" unicode="&#xb3;" horiz-adv-x="259" 
d="M38 240l-17 90h97q7 0 10.5 2t3.5 11v79q0 6 -2 9t-10 3h-75v84h73q14 0 14 13v94q0 8 -3 10t-9 2h-100l17 90h125q65 0 65 -64v-136q0 -17 -7 -28.5t-31 -13.5q25 0 32.5 -14.5t7.5 -34.5v-131q0 -65 -65 -65h-126z" />
    <glyph glyph-name="acute" unicode="&#xb4;" horiz-adv-x="385" 
d="M156 790h-106l130 121h155z" />
    <glyph glyph-name="mu" unicode="&#xb5;" horiz-adv-x="405" 
d="M242 36q-5 -18 -20.5 -27t-38.5 -9h-22v-192h-131v727h133v-403q0 -12 12 -12h55q12 0 12 12v403h133v-535h-133v36z" />
    <glyph glyph-name="mu" unicode="&#x3bc;" horiz-adv-x="405" 
d="M242 36q-5 -18 -20.5 -27t-38.5 -9h-22v-192h-131v727h133v-403q0 -12 12 -12h55q12 0 12 12v403h133v-535h-133v36z" />
    <glyph glyph-name="paragraph" unicode="&#xb6;" horiz-adv-x="581" 
d="M551 596h-27v-596h-130v596h-76v-596h-126v259h-27q-41 0 -67.5 9.5t-41.5 24.5t-20.5 34t-5.5 39v243q0 57 32.5 87.5t84.5 30.5h404v-131z" />
    <glyph glyph-name="periodcentered" unicode="&#xb7;" horiz-adv-x="216" 
d="M30 363q0 32 23 55t55 23t55 -23t23 -55t-23 -54.5t-55 -22.5t-55 22.5t-23 54.5z" />
    <glyph glyph-name="cedilla" unicode="&#xb8;" horiz-adv-x="339" 
d="M65 -131q11 -10 31 -17t38 -7q19 0 33 8.5t14 28.5q0 13 -10 22.5t-24 9.5q-10 0 -19.5 -2t-20.5 -7l-37 22l59 86h67l-36 -58q13 3 28 3q36 0 61.5 -19.5t25.5 -57.5q0 -24 -10 -42t-26 -30t-37 -18t-43 -6q-30 -1 -60.5 7.5t-54.5 25.5z" />
    <glyph glyph-name="onesuperior" unicode="&#xb9;" horiz-adv-x="213" 
d="M57 727h103v-397h33v-90h-164v90h32v307h-41z" />
    <glyph glyph-name="ordmasculine" unicode="&#xba;" horiz-adv-x="289" 
d="M163 451q8 0 8 7v184q0 8 -8 8h-37q-8 0 -8 -8v-184q0 -7 8 -7h37zM30 677q0 50 50 50h130q49 0 49 -50v-258q0 -50 -49 -50h-130q-50 0 -50 50v258z" />
    <glyph glyph-name="guillemotright" unicode="&#xbb;" horiz-adv-x="435" 
d="M255 273l-121 -198h-119l118 198l-118 198h119zM425 273l-117 -198h-122l121 198l-121 198h122z" />
    <glyph glyph-name="onequarter" unicode="&#xbc;" horiz-adv-x="751" 
d="M60 727h116v-444h37v-101h-184v101h36v343h-45zM514 742l-224 -756h-88l223 756h89zM549 545h152v-360h30v-86h-30v-99h-107v99h-166v123l121 303v20zM594 185v209l-62 -177v-32h62z" />
    <glyph glyph-name="onehalf" unicode="&#xbd;" horiz-adv-x="766" 
d="M741 338q0 -21 -7 -33t-26 -25l-102 -81q-6 -4 -6 -13v-85h132l-20 -101h-220v196q0 26 7.5 43.5t27.5 31.5l103 78q7 6 7 12v73q0 10 -10 10h-133l19 101h156q72 0 72 -73v-134zM60 727h116v-444h37v-101h-184v101h36v343h-45zM514 742l-224 -756h-88l223 756h89z" />
    <glyph glyph-name="threequarters" unicode="&#xbe;" horiz-adv-x="783" 
d="M547 742l-221 -756h-88l220 756h89zM581 545h152v-360h30v-86h-30v-99h-107v99h-166v123l121 303v20zM626 185v209l-62 -177v-32h62zM39 182l-18 101h111q8 0 11.5 2t3.5 12v89q0 6 -2 9.5t-11 3.5h-86v94h84q9 0 12 3t3 12v104q0 9 -3 11.5t-9 2.5h-115l19 101h139
q73 0 73 -71v-152q0 -19 -8 -32.5t-34 -15.5q28 0 36.5 -16t8.5 -38v-147q0 -73 -73 -73h-142z" />
    <glyph glyph-name="questiondown" unicode="&#xbf;" horiz-adv-x="364" 
d="M30 180q0 32 19 52t60 20h77v113h120v-191q0 -17 -12 -29.5t-30 -12.5h-78q-10 0 -12 -3t-2 -11v-140q0 -13 13 -13h169l-25 -135h-204q-95 0 -95 95v255zM322 488q0 -32 -23 -55t-55 -23t-55 23t-23 55t23 54.5t55 22.5t55 -22.5t23 -54.5z" />
    <glyph glyph-name="Agrave" unicode="&#xc0;" horiz-adv-x="437" 
d="M268 90l13 -90h146l-131 727h-155l-131 -727h146l13 90h99zM219 464l33 -259h-67zM-12 885h155l130 -121h-106z" />
    <glyph glyph-name="Aacute" unicode="&#xc1;" horiz-adv-x="437" 
d="M169 90l-13 -90h-146l131 727h155l131 -727h-146l-13 90h-99zM185 205h67l-33 259zM273 762h-106l130 121h155z" />
    <glyph glyph-name="Acircumflex" unicode="&#xc2;" horiz-adv-x="437" 
d="M169 90l-13 -90h-146l131 727h155l131 -727h-146l-13 90h-99zM185 205h67l-33 259zM277 893l113 -131h-118l-54 72l-54 -72h-116l112 131h117z" />
    <glyph glyph-name="Atilde" unicode="&#xc3;" horiz-adv-x="437" 
d="M169 90l-13 -90h-146l131 727h155l131 -727h-146l-13 90h-99zM185 205h67l-33 259zM390 884q5 -57 -18.5 -92t-80.5 -35q-23 0 -40 6.5t-32.5 14t-31 14t-34.5 6.5q-37 0 -37 -42h-63q-2 60 27.5 94t77.5 34q21 0 39 -6.5t34 -15t30.5 -15t27.5 -6.5q17 0 28.5 11.5
t9.5 31.5h63z" />
    <glyph glyph-name="Adieresis" unicode="&#xc4;" horiz-adv-x="437" 
d="M169 90l-13 -90h-146l131 727h155l131 -727h-146l-13 90h-99zM185 205h67l-33 259zM47 828q0 31 21 53t53 22q31 0 52 -22t21 -53t-21 -53t-52 -22q-32 0 -53 22t-21 53zM245 828q0 31 21 53t52 22t52.5 -22t21.5 -53t-21.5 -53t-52.5 -22t-52 22t-21 53z" />
    <glyph glyph-name="Aring" unicode="&#xc5;" horiz-adv-x="437" 
d="M169 90l-13 -90h-146l131 727h155l131 -727h-146l-13 90h-99zM185 205h67l-33 259zM117 858q0 21 8 40t22 33t32 22t39 8t40 -8t33 -22t22 -33t8 -40t-8 -39t-22 -32t-33 -22t-40 -8t-39 8t-32 22t-22 32t-8 39zM181 858q0 -15 11 -26t26 -11q16 0 27.5 11t11.5 26
q0 16 -11.5 27.5t-27.5 11.5q-15 0 -26 -11.5t-11 -27.5z" />
    <glyph glyph-name="AE" unicode="&#xc6;" horiz-adv-x="636" 
d="M195 90l-30 -90h-155l267 727h314l25 -135h-158v-174h120v-125h-120v-158h152l-25 -135h-272v90h-118zM232 205h81v259z" />
    <glyph glyph-name="Ccedilla" unicode="&#xc7;" horiz-adv-x="351" 
d="M105 -131q11 -10 31 -17t38 -7q19 0 33 8.5t14 28.5q0 13 -10 22.5t-24 9.5q-10 0 -19.5 -2t-20.5 -7l-37 22l50 73h-19q-62 0 -86.5 25t-24.5 85v528q0 43 25.5 66t62.5 23h188l25 -135h-139q-13 0 -13 -14v-429q0 -14 13 -14h139l-26 -135h-77l-28 -45q13 3 28 3
q36 0 61.5 -19.5t25.5 -57.5q0 -24 -10 -42t-26 -30t-37 -18t-43 -6q-30 -1 -60.5 7.5t-54.5 25.5z" />
    <glyph glyph-name="Egrave" unicode="&#xc8;" horiz-adv-x="357" 
d="M30 727h282l25 -135h-158v-174h120v-125h-120v-158h152l-25 -135h-276v727zM-42 885h155l130 -121h-106z" />
    <glyph glyph-name="Eacute" unicode="&#xc9;" horiz-adv-x="357" 
d="M30 727h282l25 -135h-158v-174h120v-125h-120v-158h152l-25 -135h-276v727zM231 762h-106l130 121h155z" />
    <glyph glyph-name="Ecircumflex" unicode="&#xca;" horiz-adv-x="357" 
d="M30 727h282l25 -135h-158v-174h120v-125h-120v-158h152l-25 -135h-276v727zM237 893l113 -131h-118l-54 72l-54 -72h-116l112 131h117z" />
    <glyph glyph-name="Edieresis" unicode="&#xcb;" horiz-adv-x="357" 
d="M30 727h282l25 -135h-158v-174h120v-125h-120v-158h152l-25 -135h-276v727zM7 828q0 31 21 53t53 22q31 0 52 -22t21 -53t-21 -53t-52 -22q-32 0 -53 22t-21 53zM205 828q0 31 21 53t52 22t52.5 -22t21.5 -53t-21.5 -53t-52.5 -22t-52 22t-21 53z" />
    <glyph glyph-name="Igrave" unicode="&#xcc;" horiz-adv-x="205" 
d="M30 727h145v-727h-145v727zM-130 885h155l130 -121h-106z" />
    <glyph glyph-name="Iacute" unicode="&#xcd;" horiz-adv-x="205" 
d="M30 727h145v-727h-145v727zM156 762h-106l130 121h155z" />
    <glyph glyph-name="Icircumflex" unicode="&#xce;" horiz-adv-x="205" 
d="M30 727h145v-727h-145v727zM162 893l113 -131h-118l-54 72l-54 -72h-116l112 131h117z" />
    <glyph glyph-name="Idieresis" unicode="&#xcf;" horiz-adv-x="205" 
d="M30 727h145v-727h-145v727zM-69 828q0 31 21 53t53 22q31 0 52 -22t21 -53t-21 -53t-52 -22q-32 0 -53 22t-21 53zM129 828q0 31 21 53t52 22t52.5 -22t21.5 -53t-21.5 -53t-52.5 -22t-52 22t-21 53z" />
    <glyph glyph-name="Eth" unicode="&#xd0;" horiz-adv-x="445" 
d="M20 423h20v304h278q97 0 97 -97v-533q0 -97 -97 -97h-278v303h-30zM184 600v-177h45l-10 -120h-35v-176h73q9 0 11.5 3.5t2.5 11.5v444q0 14 -13 14h-74z" />
    <glyph glyph-name="Ntilde" unicode="&#xd1;" horiz-adv-x="421" 
d="M30 727h138l74 -293v293h149v-727h-149l-78 303v-303h-134v727zM383 884q5 -57 -18.5 -92t-80.5 -35q-23 0 -40 6.5t-32.5 14t-31 14t-34.5 6.5q-37 0 -37 -42h-63q-2 60 27.5 94t77.5 34q21 0 39 -6.5t34 -15t30.5 -15t27.5 -6.5q17 0 28.5 11.5t9.5 31.5h63z" />
    <glyph glyph-name="Ograve" unicode="&#xd2;" horiz-adv-x="436" 
d="M246 600q13 0 13 -14v-444q0 -8 -2.5 -11.5t-11.5 -3.5h-55q-9 0 -11.5 3.5t-2.5 11.5v444q0 14 13 14h57zM406 633q0 43 -23 68.5t-74 25.5h-182q-51 0 -74 -25.5t-23 -68.5v-530q0 -21 4.5 -39.5t16.5 -32.5t32 -22.5t50 -8.5h170q30 0 50 8.5t32 22.5t16.5 32.5
t4.5 39.5v530zM-10 885h155l130 -121h-106z" />
    <glyph glyph-name="Oacute" unicode="&#xd3;" horiz-adv-x="436" 
d="M189 600q-13 0 -13 -14v-444q0 -8 2.5 -11.5t11.5 -3.5h55q9 0 11.5 3.5t2.5 11.5v444q0 14 -13 14h-57zM406 103q0 -21 -4.5 -39.5t-16.5 -32.5t-32 -22.5t-50 -8.5h-170q-30 0 -50 8.5t-32 22.5t-16.5 32.5t-4.5 39.5v530q0 43 23 68.5t74 25.5h182q51 0 74 -25.5
t23 -68.5v-530zM267 762h-106l130 121h155z" />
    <glyph glyph-name="Ocircumflex" unicode="&#xd4;" horiz-adv-x="436" 
d="M189 600q-13 0 -13 -14v-444q0 -8 2.5 -11.5t11.5 -3.5h55q9 0 11.5 3.5t2.5 11.5v444q0 14 -13 14h-57zM406 103q0 -21 -4.5 -39.5t-16.5 -32.5t-32 -22.5t-50 -8.5h-170q-30 0 -50 8.5t-32 22.5t-16.5 32.5t-4.5 39.5v530q0 43 23 68.5t74 25.5h182q51 0 74 -25.5
t23 -68.5v-530zM277 893l113 -131h-118l-54 72l-54 -72h-116l112 131h117z" />
    <glyph glyph-name="Otilde" unicode="&#xd5;" horiz-adv-x="436" 
d="M189 600q-13 0 -13 -14v-444q0 -8 2.5 -11.5t11.5 -3.5h55q9 0 11.5 3.5t2.5 11.5v444q0 14 -13 14h-57zM406 103q0 -21 -4.5 -39.5t-16.5 -32.5t-32 -22.5t-50 -8.5h-170q-30 0 -50 8.5t-32 22.5t-16.5 32.5t-4.5 39.5v530q0 43 23 68.5t74 25.5h182q51 0 74 -25.5
t23 -68.5v-530zM386 884q5 -57 -18.5 -92t-80.5 -35q-23 0 -40 6.5t-32.5 14t-31 14t-34.5 6.5q-37 0 -37 -42h-63q-2 60 27.5 94t77.5 34q21 0 39 -6.5t34 -15t30.5 -15t27.5 -6.5q17 0 28.5 11.5t9.5 31.5h63z" />
    <glyph glyph-name="Odieresis" unicode="&#xd6;" horiz-adv-x="436" 
d="M189 600q-13 0 -13 -14v-444q0 -8 2.5 -11.5t11.5 -3.5h55q9 0 11.5 3.5t2.5 11.5v444q0 14 -13 14h-57zM406 103q0 -21 -4.5 -39.5t-16.5 -32.5t-32 -22.5t-50 -8.5h-170q-30 0 -50 8.5t-32 22.5t-16.5 32.5t-4.5 39.5v530q0 43 23 68.5t74 25.5h182q51 0 74 -25.5
t23 -68.5v-530zM46 828q0 31 21 53t53 22q31 0 52 -22t21 -53t-21 -53t-52 -22q-32 0 -53 22t-21 53zM244 828q0 31 21 53t52 22t52.5 -22t21.5 -53t-21.5 -53t-52.5 -22t-52 22t-21 53z" />
    <glyph glyph-name="multiply" unicode="&#xd7;" 
d="M537 242q-154 -39 -310 0q10 -17 24.5 -35t34 -34t43.5 -26t53 -10q28 0 52 10t43.5 26t34.5 34t25 35zM600 340h-436l53 -84q83 -20 164.5 -19.5t164.5 19.5zM323 453q-13 27 -21 56t-25 52q-3 4 -12.5 0t-20 -10.5t-18 -13t-5.5 -8.5l72 -90q1 -2 6.5 -0.5t11 4
t9.5 5.5t3 5zM419 371l-37 89l-36 -89h73zM542 529q1 2 -6 8.5t-17 13t-19.5 10.5t-12.5 0q-18 -23 -26.5 -52t-19.5 -56q-2 -2 2 -5t10 -5.5t11 -4t7 0.5zM657 371q0 -57 -21.5 -107t-59 -87.5t-87.5 -59t-107 -21.5t-107 21.5t-87.5 59t-59.5 87.5t-22 107t22 107
t59.5 87.5t87.5 59t107 21.5t107 -21.5t87.5 -59t59 -87.5t21.5 -107zM677 371q0 61 -23 115t-63 94t-94 63.5t-115 23.5t-115 -23.5t-94.5 -63.5t-64 -94t-23.5 -115t23.5 -114.5t64 -94t94.5 -64t115 -23.5t115 23.5t94 64t63 94t23 114.5zM707 104h-26v-69h-19v69h-25v16
h70v-16zM724 371q0 -71 -27 -133t-73.5 -109t-109 -74t-132.5 -27q-71 0 -133 27t-108.5 74t-73.5 109t-27 133t27 133.5t73.5 109t108.5 73.5t133 27q70 0 132.5 -27t109 -73.5t73.5 -109t27 -133.5zM796 35h-15v69l-17 -69h-16l-17 69v-69h-16v85h25l17 -66l14 66h25v-85z
" />
    <glyph glyph-name="Oslash" unicode="&#xd8;" horiz-adv-x="436" 
d="M406 103q0 -21 -4.5 -39.5t-16.5 -32.5t-32 -22.5t-50 -8.5h-170q-26 0 -44 6l-11 -26l-46 21l15 34q-10 14 -13.5 31t-3.5 37v530q0 43 23 68.5t74 25.5h182q26 0 43 -7l12 27l47 -21l-18 -39q13 -22 13 -54v-530zM187 600q-13 0 -13 -14v-277l87 227v50q0 14 -13 14
h-61zM247 127q9 0 11.5 3.5t2.5 11.5v258l-87 -226v-32q0 -8 2.5 -11.5t11.5 -3.5h59z" />
    <glyph glyph-name="Ugrave" unicode="&#xd9;" horiz-adv-x="435" 
d="M295 0q62 0 86 24.5t24 84.5v618h-148v-584q0 -8 -2.5 -12t-11.5 -4h-51q-9 0 -11.5 4t-2.5 12v584h-148v-618q0 -60 24 -84.5t86 -24.5h155zM-10 885h155l130 -121h-106z" />
    <glyph glyph-name="Uacute" unicode="&#xda;" horiz-adv-x="435" 
d="M140 0q-62 0 -86 24.5t-24 84.5v618h148v-584q0 -8 2.5 -12t11.5 -4h51q9 0 11.5 4t2.5 12v584h148v-618q0 -60 -24 -84.5t-86 -24.5h-155zM266 762h-106l130 121h155z" />
    <glyph glyph-name="Ucircumflex" unicode="&#xdb;" horiz-adv-x="435" 
d="M140 0q-62 0 -86 24.5t-24 84.5v618h148v-584q0 -8 2.5 -12t11.5 -4h51q9 0 11.5 4t2.5 12v584h148v-618q0 -60 -24 -84.5t-86 -24.5h-155zM277 893l113 -131h-118l-54 72l-54 -72h-116l112 131h117z" />
    <glyph glyph-name="Udieresis" unicode="&#xdc;" horiz-adv-x="435" 
d="M140 0q-62 0 -86 24.5t-24 84.5v618h148v-584q0 -8 2.5 -12t11.5 -4h51q9 0 11.5 4t2.5 12v584h148v-618q0 -60 -24 -84.5t-86 -24.5h-155zM46 828q0 31 21 53t53 22q31 0 52 -22t21 -53t-21 -53t-52 -22q-32 0 -53 22t-21 53zM244 828q0 31 21 53t52 22t52.5 -22
t21.5 -53t-21.5 -53t-52.5 -22t-52 22t-21 53z" />
    <glyph glyph-name="Yacute" unicode="&#xdd;" horiz-adv-x="451" 
d="M302 0h-153v184l-139 543h150l65 -344l66 344h150l-139 -543v-184zM277 762h-106l130 121h155z" />
    <glyph glyph-name="Thorn" unicode="&#xde;" horiz-adv-x="431" 
d="M174 510v-300h72q9 0 11.5 3.5t2.5 11.5v271q0 14 -13 14h-73zM401 184q0 -43 -23.5 -68.5t-74.5 -25.5h-129v-90h-144v727h144v-90h129q51 0 74.5 -25t23.5 -68v-360z" />
    <glyph glyph-name="germandbls" unicode="&#xdf;" 
d="M537 242q-154 -39 -310 0q10 -17 24.5 -35t34 -34t43.5 -26t53 -10q28 0 52 10t43.5 26t34.5 34t25 35zM600 340h-436l53 -84q83 -20 164.5 -19.5t164.5 19.5zM323 453q-13 27 -21 56t-25 52q-3 4 -12.5 0t-20 -10.5t-18 -13t-5.5 -8.5l72 -90q1 -2 6.5 -0.5t11 4
t9.5 5.5t3 5zM419 371l-37 89l-36 -89h73zM542 529q1 2 -6 8.5t-17 13t-19.5 10.5t-12.5 0q-18 -23 -26.5 -52t-19.5 -56q-2 -2 2 -5t10 -5.5t11 -4t7 0.5zM657 371q0 -57 -21.5 -107t-59 -87.5t-87.5 -59t-107 -21.5t-107 21.5t-87.5 59t-59.5 87.5t-22 107t22 107
t59.5 87.5t87.5 59t107 21.5t107 -21.5t87.5 -59t59 -87.5t21.5 -107zM677 371q0 61 -23 115t-63 94t-94 63.5t-115 23.5t-115 -23.5t-94.5 -63.5t-64 -94t-23.5 -115t23.5 -114.5t64 -94t94.5 -64t115 -23.5t115 23.5t94 64t63 94t23 114.5zM707 104h-26v-69h-19v69h-25v16
h70v-16zM724 371q0 -71 -27 -133t-73.5 -109t-109 -74t-132.5 -27q-71 0 -133 27t-108.5 74t-73.5 109t-27 133t27 133.5t73.5 109t108.5 73.5t133 27q70 0 132.5 -27t109 -73.5t73.5 -109t27 -133.5zM796 35h-15v69l-17 -69h-16l-17 69v-69h-16v85h25l17 -66l14 66h25v-85z
" />
    <glyph glyph-name="agrave" unicode="&#xe0;" 
d="M537 242q-154 -39 -310 0q10 -17 24.5 -35t34 -34t43.5 -26t53 -10q28 0 52 10t43.5 26t34.5 34t25 35zM600 340h-436l53 -84q83 -20 164.5 -19.5t164.5 19.5zM323 453q-13 27 -21 56t-25 52q-3 4 -12.5 0t-20 -10.5t-18 -13t-5.5 -8.5l72 -90q1 -2 6.5 -0.5t11 4
t9.5 5.5t3 5zM419 371l-37 89l-36 -89h73zM542 529q1 2 -6 8.5t-17 13t-19.5 10.5t-12.5 0q-18 -23 -26.5 -52t-19.5 -56q-2 -2 2 -5t10 -5.5t11 -4t7 0.5zM657 371q0 -57 -21.5 -107t-59 -87.5t-87.5 -59t-107 -21.5t-107 21.5t-87.5 59t-59.5 87.5t-22 107t22 107
t59.5 87.5t87.5 59t107 21.5t107 -21.5t87.5 -59t59 -87.5t21.5 -107zM677 371q0 61 -23 115t-63 94t-94 63.5t-115 23.5t-115 -23.5t-94.5 -63.5t-64 -94t-23.5 -115t23.5 -114.5t64 -94t94.5 -64t115 -23.5t115 23.5t94 64t63 94t23 114.5zM707 104h-26v-69h-19v69h-25v16
h70v-16zM724 371q0 -71 -27 -133t-73.5 -109t-109 -74t-132.5 -27q-71 0 -133 27t-108.5 74t-73.5 109t-27 133t27 133.5t73.5 109t108.5 73.5t133 27q70 0 132.5 -27t109 -73.5t73.5 -109t27 -133.5zM796 35h-15v69l-17 -69h-16l-17 69v-69h-16v85h25l17 -66l14 66h25v-85z
" />
    <glyph glyph-name="aacute" unicode="&#xe1;" 
d="M537 242q-154 -39 -310 0q10 -17 24.5 -35t34 -34t43.5 -26t53 -10q28 0 52 10t43.5 26t34.5 34t25 35zM600 340h-436l53 -84q83 -20 164.5 -19.5t164.5 19.5zM323 453q-13 27 -21 56t-25 52q-3 4 -12.5 0t-20 -10.5t-18 -13t-5.5 -8.5l72 -90q1 -2 6.5 -0.5t11 4
t9.5 5.5t3 5zM419 371l-37 89l-36 -89h73zM542 529q1 2 -6 8.5t-17 13t-19.5 10.5t-12.5 0q-18 -23 -26.5 -52t-19.5 -56q-2 -2 2 -5t10 -5.5t11 -4t7 0.5zM657 371q0 -57 -21.5 -107t-59 -87.5t-87.5 -59t-107 -21.5t-107 21.5t-87.5 59t-59.5 87.5t-22 107t22 107
t59.5 87.5t87.5 59t107 21.5t107 -21.5t87.5 -59t59 -87.5t21.5 -107zM677 371q0 61 -23 115t-63 94t-94 63.5t-115 23.5t-115 -23.5t-94.5 -63.5t-64 -94t-23.5 -115t23.5 -114.5t64 -94t94.5 -64t115 -23.5t115 23.5t94 64t63 94t23 114.5zM707 104h-26v-69h-19v69h-25v16
h70v-16zM724 371q0 -71 -27 -133t-73.5 -109t-109 -74t-132.5 -27q-71 0 -133 27t-108.5 74t-73.5 109t-27 133t27 133.5t73.5 109t108.5 73.5t133 27q70 0 132.5 -27t109 -73.5t73.5 -109t27 -133.5zM796 35h-15v69l-17 -69h-16l-17 69v-69h-16v85h25l17 -66l14 66h25v-85z
" />
    <glyph glyph-name="acircumflex" unicode="&#xe2;" 
d="M537 242q-154 -39 -310 0q10 -17 24.5 -35t34 -34t43.5 -26t53 -10q28 0 52 10t43.5 26t34.5 34t25 35zM600 340h-436l53 -84q83 -20 164.5 -19.5t164.5 19.5zM323 453q-13 27 -21 56t-25 52q-3 4 -12.5 0t-20 -10.5t-18 -13t-5.5 -8.5l72 -90q1 -2 6.5 -0.5t11 4
t9.5 5.5t3 5zM419 371l-37 89l-36 -89h73zM542 529q1 2 -6 8.5t-17 13t-19.5 10.5t-12.5 0q-18 -23 -26.5 -52t-19.5 -56q-2 -2 2 -5t10 -5.5t11 -4t7 0.5zM657 371q0 -57 -21.5 -107t-59 -87.5t-87.5 -59t-107 -21.5t-107 21.5t-87.5 59t-59.5 87.5t-22 107t22 107
t59.5 87.5t87.5 59t107 21.5t107 -21.5t87.5 -59t59 -87.5t21.5 -107zM677 371q0 61 -23 115t-63 94t-94 63.5t-115 23.5t-115 -23.5t-94.5 -63.5t-64 -94t-23.5 -115t23.5 -114.5t64 -94t94.5 -64t115 -23.5t115 23.5t94 64t63 94t23 114.5zM707 104h-26v-69h-19v69h-25v16
h70v-16zM724 371q0 -71 -27 -133t-73.5 -109t-109 -74t-132.5 -27q-71 0 -133 27t-108.5 74t-73.5 109t-27 133t27 133.5t73.5 109t108.5 73.5t133 27q70 0 132.5 -27t109 -73.5t73.5 -109t27 -133.5zM796 35h-15v69l-17 -69h-16l-17 69v-69h-16v85h25l17 -66l14 66h25v-85z
" />
    <glyph glyph-name="atilde" unicode="&#xe3;" 
d="M537 242q-154 -39 -310 0q10 -17 24.5 -35t34 -34t43.5 -26t53 -10q28 0 52 10t43.5 26t34.5 34t25 35zM600 340h-436l53 -84q83 -20 164.5 -19.5t164.5 19.5zM323 453q-13 27 -21 56t-25 52q-3 4 -12.5 0t-20 -10.5t-18 -13t-5.5 -8.5l72 -90q1 -2 6.5 -0.5t11 4
t9.5 5.5t3 5zM419 371l-37 89l-36 -89h73zM542 529q1 2 -6 8.5t-17 13t-19.5 10.5t-12.5 0q-18 -23 -26.5 -52t-19.5 -56q-2 -2 2 -5t10 -5.5t11 -4t7 0.5zM657 371q0 -57 -21.5 -107t-59 -87.5t-87.5 -59t-107 -21.5t-107 21.5t-87.5 59t-59.5 87.5t-22 107t22 107
t59.5 87.5t87.5 59t107 21.5t107 -21.5t87.5 -59t59 -87.5t21.5 -107zM677 371q0 61 -23 115t-63 94t-94 63.5t-115 23.5t-115 -23.5t-94.5 -63.5t-64 -94t-23.5 -115t23.5 -114.5t64 -94t94.5 -64t115 -23.5t115 23.5t94 64t63 94t23 114.5zM707 104h-26v-69h-19v69h-25v16
h70v-16zM724 371q0 -71 -27 -133t-73.5 -109t-109 -74t-132.5 -27q-71 0 -133 27t-108.5 74t-73.5 109t-27 133t27 133.5t73.5 109t108.5 73.5t133 27q70 0 132.5 -27t109 -73.5t73.5 -109t27 -133.5zM796 35h-15v69l-17 -69h-16l-17 69v-69h-16v85h25l17 -66l14 66h25v-85z
" />
    <glyph glyph-name="adieresis" unicode="&#xe4;" 
d="M537 242q-154 -39 -310 0q10 -17 24.5 -35t34 -34t43.5 -26t53 -10q28 0 52 10t43.5 26t34.5 34t25 35zM600 340h-436l53 -84q83 -20 164.5 -19.5t164.5 19.5zM323 453q-13 27 -21 56t-25 52q-3 4 -12.5 0t-20 -10.5t-18 -13t-5.5 -8.5l72 -90q1 -2 6.5 -0.5t11 4
t9.5 5.5t3 5zM419 371l-37 89l-36 -89h73zM542 529q1 2 -6 8.5t-17 13t-19.5 10.5t-12.5 0q-18 -23 -26.5 -52t-19.5 -56q-2 -2 2 -5t10 -5.5t11 -4t7 0.5zM657 371q0 -57 -21.5 -107t-59 -87.5t-87.5 -59t-107 -21.5t-107 21.5t-87.5 59t-59.5 87.5t-22 107t22 107
t59.5 87.5t87.5 59t107 21.5t107 -21.5t87.5 -59t59 -87.5t21.5 -107zM677 371q0 61 -23 115t-63 94t-94 63.5t-115 23.5t-115 -23.5t-94.5 -63.5t-64 -94t-23.5 -115t23.5 -114.5t64 -94t94.5 -64t115 -23.5t115 23.5t94 64t63 94t23 114.5zM707 104h-26v-69h-19v69h-25v16
h70v-16zM724 371q0 -71 -27 -133t-73.5 -109t-109 -74t-132.5 -27q-71 0 -133 27t-108.5 74t-73.5 109t-27 133t27 133.5t73.5 109t108.5 73.5t133 27q70 0 132.5 -27t109 -73.5t73.5 -109t27 -133.5zM796 35h-15v69l-17 -69h-16l-17 69v-69h-16v85h25l17 -66l14 66h25v-85z
" />
    <glyph glyph-name="aring" unicode="&#xe5;" 
d="M537 242q-154 -39 -310 0q10 -17 24.5 -35t34 -34t43.5 -26t53 -10q28 0 52 10t43.5 26t34.5 34t25 35zM600 340h-436l53 -84q83 -20 164.5 -19.5t164.5 19.5zM323 453q-13 27 -21 56t-25 52q-3 4 -12.5 0t-20 -10.5t-18 -13t-5.5 -8.5l72 -90q1 -2 6.5 -0.5t11 4
t9.5 5.5t3 5zM419 371l-37 89l-36 -89h73zM542 529q1 2 -6 8.5t-17 13t-19.5 10.5t-12.5 0q-18 -23 -26.5 -52t-19.5 -56q-2 -2 2 -5t10 -5.5t11 -4t7 0.5zM657 371q0 -57 -21.5 -107t-59 -87.5t-87.5 -59t-107 -21.5t-107 21.5t-87.5 59t-59.5 87.5t-22 107t22 107
t59.5 87.5t87.5 59t107 21.5t107 -21.5t87.5 -59t59 -87.5t21.5 -107zM677 371q0 61 -23 115t-63 94t-94 63.5t-115 23.5t-115 -23.5t-94.5 -63.5t-64 -94t-23.5 -115t23.5 -114.5t64 -94t94.5 -64t115 -23.5t115 23.5t94 64t63 94t23 114.5zM707 104h-26v-69h-19v69h-25v16
h70v-16zM724 371q0 -71 -27 -133t-73.5 -109t-109 -74t-132.5 -27q-71 0 -133 27t-108.5 74t-73.5 109t-27 133t27 133.5t73.5 109t108.5 73.5t133 27q70 0 132.5 -27t109 -73.5t73.5 -109t27 -133.5zM796 35h-15v69l-17 -69h-16l-17 69v-69h-16v85h25l17 -66l14 66h25v-85z
" />
    <glyph glyph-name="ae" unicode="&#xe6;" 
d="M537 242q-154 -39 -310 0q10 -17 24.5 -35t34 -34t43.5 -26t53 -10q28 0 52 10t43.5 26t34.5 34t25 35zM600 340h-436l53 -84q83 -20 164.5 -19.5t164.5 19.5zM323 453q-13 27 -21 56t-25 52q-3 4 -12.5 0t-20 -10.5t-18 -13t-5.5 -8.5l72 -90q1 -2 6.5 -0.5t11 4
t9.5 5.5t3 5zM419 371l-37 89l-36 -89h73zM542 529q1 2 -6 8.5t-17 13t-19.5 10.5t-12.5 0q-18 -23 -26.5 -52t-19.5 -56q-2 -2 2 -5t10 -5.5t11 -4t7 0.5zM657 371q0 -57 -21.5 -107t-59 -87.5t-87.5 -59t-107 -21.5t-107 21.5t-87.5 59t-59.5 87.5t-22 107t22 107
t59.5 87.5t87.5 59t107 21.5t107 -21.5t87.5 -59t59 -87.5t21.5 -107zM677 371q0 61 -23 115t-63 94t-94 63.5t-115 23.5t-115 -23.5t-94.5 -63.5t-64 -94t-23.5 -115t23.5 -114.5t64 -94t94.5 -64t115 -23.5t115 23.5t94 64t63 94t23 114.5zM707 104h-26v-69h-19v69h-25v16
h70v-16zM724 371q0 -71 -27 -133t-73.5 -109t-109 -74t-132.5 -27q-71 0 -133 27t-108.5 74t-73.5 109t-27 133t27 133.5t73.5 109t108.5 73.5t133 27q70 0 132.5 -27t109 -73.5t73.5 -109t27 -133.5zM796 35h-15v69l-17 -69h-16l-17 69v-69h-16v85h25l17 -66l14 66h25v-85z
" />
    <glyph glyph-name="ccedilla" unicode="&#xe7;" 
d="M537 242q-154 -39 -310 0q10 -17 24.5 -35t34 -34t43.5 -26t53 -10q28 0 52 10t43.5 26t34.5 34t25 35zM600 340h-436l53 -84q83 -20 164.5 -19.5t164.5 19.5zM323 453q-13 27 -21 56t-25 52q-3 4 -12.5 0t-20 -10.5t-18 -13t-5.5 -8.5l72 -90q1 -2 6.5 -0.5t11 4
t9.5 5.5t3 5zM419 371l-37 89l-36 -89h73zM542 529q1 2 -6 8.5t-17 13t-19.5 10.5t-12.5 0q-18 -23 -26.5 -52t-19.5 -56q-2 -2 2 -5t10 -5.5t11 -4t7 0.5zM657 371q0 -57 -21.5 -107t-59 -87.5t-87.5 -59t-107 -21.5t-107 21.5t-87.5 59t-59.5 87.5t-22 107t22 107
t59.5 87.5t87.5 59t107 21.5t107 -21.5t87.5 -59t59 -87.5t21.5 -107zM677 371q0 61 -23 115t-63 94t-94 63.5t-115 23.5t-115 -23.5t-94.5 -63.5t-64 -94t-23.5 -115t23.5 -114.5t64 -94t94.5 -64t115 -23.5t115 23.5t94 64t63 94t23 114.5zM707 104h-26v-69h-19v69h-25v16
h70v-16zM724 371q0 -71 -27 -133t-73.5 -109t-109 -74t-132.5 -27q-71 0 -133 27t-108.5 74t-73.5 109t-27 133t27 133.5t73.5 109t108.5 73.5t133 27q70 0 132.5 -27t109 -73.5t73.5 -109t27 -133.5zM796 35h-15v69l-17 -69h-16l-17 69v-69h-16v85h25l17 -66l14 66h25v-85z
" />
    <glyph glyph-name="egrave" unicode="&#xe8;" 
d="M537 242q-154 -39 -310 0q10 -17 24.5 -35t34 -34t43.5 -26t53 -10q28 0 52 10t43.5 26t34.5 34t25 35zM600 340h-436l53 -84q83 -20 164.5 -19.5t164.5 19.5zM323 453q-13 27 -21 56t-25 52q-3 4 -12.5 0t-20 -10.5t-18 -13t-5.5 -8.5l72 -90q1 -2 6.5 -0.5t11 4
t9.5 5.5t3 5zM419 371l-37 89l-36 -89h73zM542 529q1 2 -6 8.5t-17 13t-19.5 10.5t-12.5 0q-18 -23 -26.5 -52t-19.5 -56q-2 -2 2 -5t10 -5.5t11 -4t7 0.5zM657 371q0 -57 -21.5 -107t-59 -87.5t-87.5 -59t-107 -21.5t-107 21.5t-87.5 59t-59.5 87.5t-22 107t22 107
t59.5 87.5t87.5 59t107 21.5t107 -21.5t87.5 -59t59 -87.5t21.5 -107zM677 371q0 61 -23 115t-63 94t-94 63.5t-115 23.5t-115 -23.5t-94.5 -63.5t-64 -94t-23.5 -115t23.5 -114.5t64 -94t94.5 -64t115 -23.5t115 23.5t94 64t63 94t23 114.5zM707 104h-26v-69h-19v69h-25v16
h70v-16zM724 371q0 -71 -27 -133t-73.5 -109t-109 -74t-132.5 -27q-71 0 -133 27t-108.5 74t-73.5 109t-27 133t27 133.5t73.5 109t108.5 73.5t133 27q70 0 132.5 -27t109 -73.5t73.5 -109t27 -133.5zM796 35h-15v69l-17 -69h-16l-17 69v-69h-16v85h25l17 -66l14 66h25v-85z
" />
    <glyph glyph-name="eacute" unicode="&#xe9;" 
d="M537 242q-154 -39 -310 0q10 -17 24.5 -35t34 -34t43.5 -26t53 -10q28 0 52 10t43.5 26t34.5 34t25 35zM600 340h-436l53 -84q83 -20 164.5 -19.5t164.5 19.5zM323 453q-13 27 -21 56t-25 52q-3 4 -12.5 0t-20 -10.5t-18 -13t-5.5 -8.5l72 -90q1 -2 6.5 -0.5t11 4
t9.5 5.5t3 5zM419 371l-37 89l-36 -89h73zM542 529q1 2 -6 8.5t-17 13t-19.5 10.5t-12.5 0q-18 -23 -26.5 -52t-19.5 -56q-2 -2 2 -5t10 -5.5t11 -4t7 0.5zM657 371q0 -57 -21.5 -107t-59 -87.5t-87.5 -59t-107 -21.5t-107 21.5t-87.5 59t-59.5 87.5t-22 107t22 107
t59.5 87.5t87.5 59t107 21.5t107 -21.5t87.5 -59t59 -87.5t21.5 -107zM677 371q0 61 -23 115t-63 94t-94 63.5t-115 23.5t-115 -23.5t-94.5 -63.5t-64 -94t-23.5 -115t23.5 -114.5t64 -94t94.5 -64t115 -23.5t115 23.5t94 64t63 94t23 114.5zM707 104h-26v-69h-19v69h-25v16
h70v-16zM724 371q0 -71 -27 -133t-73.5 -109t-109 -74t-132.5 -27q-71 0 -133 27t-108.5 74t-73.5 109t-27 133t27 133.5t73.5 109t108.5 73.5t133 27q70 0 132.5 -27t109 -73.5t73.5 -109t27 -133.5zM796 35h-15v69l-17 -69h-16l-17 69v-69h-16v85h25l17 -66l14 66h25v-85z
" />
    <glyph glyph-name="ecircumflex" unicode="&#xea;" 
d="M537 242q-154 -39 -310 0q10 -17 24.5 -35t34 -34t43.5 -26t53 -10q28 0 52 10t43.5 26t34.5 34t25 35zM600 340h-436l53 -84q83 -20 164.5 -19.5t164.5 19.5zM323 453q-13 27 -21 56t-25 52q-3 4 -12.5 0t-20 -10.5t-18 -13t-5.5 -8.5l72 -90q1 -2 6.5 -0.5t11 4
t9.5 5.5t3 5zM419 371l-37 89l-36 -89h73zM542 529q1 2 -6 8.5t-17 13t-19.5 10.5t-12.5 0q-18 -23 -26.5 -52t-19.5 -56q-2 -2 2 -5t10 -5.5t11 -4t7 0.5zM657 371q0 -57 -21.5 -107t-59 -87.5t-87.5 -59t-107 -21.5t-107 21.5t-87.5 59t-59.5 87.5t-22 107t22 107
t59.5 87.5t87.5 59t107 21.5t107 -21.5t87.5 -59t59 -87.5t21.5 -107zM677 371q0 61 -23 115t-63 94t-94 63.5t-115 23.5t-115 -23.5t-94.5 -63.5t-64 -94t-23.5 -115t23.5 -114.5t64 -94t94.5 -64t115 -23.5t115 23.5t94 64t63 94t23 114.5zM707 104h-26v-69h-19v69h-25v16
h70v-16zM724 371q0 -71 -27 -133t-73.5 -109t-109 -74t-132.5 -27q-71 0 -133 27t-108.5 74t-73.5 109t-27 133t27 133.5t73.5 109t108.5 73.5t133 27q70 0 132.5 -27t109 -73.5t73.5 -109t27 -133.5zM796 35h-15v69l-17 -69h-16l-17 69v-69h-16v85h25l17 -66l14 66h25v-85z
" />
    <glyph glyph-name="edieresis" unicode="&#xeb;" 
d="M537 242q-154 -39 -310 0q10 -17 24.5 -35t34 -34t43.5 -26t53 -10q28 0 52 10t43.5 26t34.5 34t25 35zM600 340h-436l53 -84q83 -20 164.5 -19.5t164.5 19.5zM323 453q-13 27 -21 56t-25 52q-3 4 -12.5 0t-20 -10.5t-18 -13t-5.5 -8.5l72 -90q1 -2 6.5 -0.5t11 4
t9.5 5.5t3 5zM419 371l-37 89l-36 -89h73zM542 529q1 2 -6 8.5t-17 13t-19.5 10.5t-12.5 0q-18 -23 -26.5 -52t-19.5 -56q-2 -2 2 -5t10 -5.5t11 -4t7 0.5zM657 371q0 -57 -21.5 -107t-59 -87.5t-87.5 -59t-107 -21.5t-107 21.5t-87.5 59t-59.5 87.5t-22 107t22 107
t59.5 87.5t87.5 59t107 21.5t107 -21.5t87.5 -59t59 -87.5t21.5 -107zM677 371q0 61 -23 115t-63 94t-94 63.5t-115 23.5t-115 -23.5t-94.5 -63.5t-64 -94t-23.5 -115t23.5 -114.5t64 -94t94.5 -64t115 -23.5t115 23.5t94 64t63 94t23 114.5zM707 104h-26v-69h-19v69h-25v16
h70v-16zM724 371q0 -71 -27 -133t-73.5 -109t-109 -74t-132.5 -27q-71 0 -133 27t-108.5 74t-73.5 109t-27 133t27 133.5t73.5 109t108.5 73.5t133 27q70 0 132.5 -27t109 -73.5t73.5 -109t27 -133.5zM796 35h-15v69l-17 -69h-16l-17 69v-69h-16v85h25l17 -66l14 66h25v-85z
" />
    <glyph glyph-name="igrave" unicode="&#xec;" 
d="M537 242q-154 -39 -310 0q10 -17 24.5 -35t34 -34t43.5 -26t53 -10q28 0 52 10t43.5 26t34.5 34t25 35zM600 340h-436l53 -84q83 -20 164.5 -19.5t164.5 19.5zM323 453q-13 27 -21 56t-25 52q-3 4 -12.5 0t-20 -10.5t-18 -13t-5.5 -8.5l72 -90q1 -2 6.5 -0.5t11 4
t9.5 5.5t3 5zM419 371l-37 89l-36 -89h73zM542 529q1 2 -6 8.5t-17 13t-19.5 10.5t-12.5 0q-18 -23 -26.5 -52t-19.5 -56q-2 -2 2 -5t10 -5.5t11 -4t7 0.5zM657 371q0 -57 -21.5 -107t-59 -87.5t-87.5 -59t-107 -21.5t-107 21.5t-87.5 59t-59.5 87.5t-22 107t22 107
t59.5 87.5t87.5 59t107 21.5t107 -21.5t87.5 -59t59 -87.5t21.5 -107zM677 371q0 61 -23 115t-63 94t-94 63.5t-115 23.5t-115 -23.5t-94.5 -63.5t-64 -94t-23.5 -115t23.5 -114.5t64 -94t94.5 -64t115 -23.5t115 23.5t94 64t63 94t23 114.5zM707 104h-26v-69h-19v69h-25v16
h70v-16zM724 371q0 -71 -27 -133t-73.5 -109t-109 -74t-132.5 -27q-71 0 -133 27t-108.5 74t-73.5 109t-27 133t27 133.5t73.5 109t108.5 73.5t133 27q70 0 132.5 -27t109 -73.5t73.5 -109t27 -133.5zM796 35h-15v69l-17 -69h-16l-17 69v-69h-16v85h25l17 -66l14 66h25v-85z
" />
    <glyph glyph-name="iacute" unicode="&#xed;" 
d="M537 242q-154 -39 -310 0q10 -17 24.5 -35t34 -34t43.5 -26t53 -10q28 0 52 10t43.5 26t34.5 34t25 35zM600 340h-436l53 -84q83 -20 164.5 -19.5t164.5 19.5zM323 453q-13 27 -21 56t-25 52q-3 4 -12.5 0t-20 -10.5t-18 -13t-5.5 -8.5l72 -90q1 -2 6.5 -0.5t11 4
t9.5 5.5t3 5zM419 371l-37 89l-36 -89h73zM542 529q1 2 -6 8.5t-17 13t-19.5 10.5t-12.5 0q-18 -23 -26.5 -52t-19.5 -56q-2 -2 2 -5t10 -5.5t11 -4t7 0.5zM657 371q0 -57 -21.5 -107t-59 -87.5t-87.5 -59t-107 -21.5t-107 21.5t-87.5 59t-59.5 87.5t-22 107t22 107
t59.5 87.5t87.5 59t107 21.5t107 -21.5t87.5 -59t59 -87.5t21.5 -107zM677 371q0 61 -23 115t-63 94t-94 63.5t-115 23.5t-115 -23.5t-94.5 -63.5t-64 -94t-23.5 -115t23.5 -114.5t64 -94t94.5 -64t115 -23.5t115 23.5t94 64t63 94t23 114.5zM707 104h-26v-69h-19v69h-25v16
h70v-16zM724 371q0 -71 -27 -133t-73.5 -109t-109 -74t-132.5 -27q-71 0 -133 27t-108.5 74t-73.5 109t-27 133t27 133.5t73.5 109t108.5 73.5t133 27q70 0 132.5 -27t109 -73.5t73.5 -109t27 -133.5zM796 35h-15v69l-17 -69h-16l-17 69v-69h-16v85h25l17 -66l14 66h25v-85z
" />
    <glyph glyph-name="icircumflex" unicode="&#xee;" 
d="M537 242q-154 -39 -310 0q10 -17 24.5 -35t34 -34t43.5 -26t53 -10q28 0 52 10t43.5 26t34.5 34t25 35zM600 340h-436l53 -84q83 -20 164.5 -19.5t164.5 19.5zM323 453q-13 27 -21 56t-25 52q-3 4 -12.5 0t-20 -10.5t-18 -13t-5.5 -8.5l72 -90q1 -2 6.5 -0.5t11 4
t9.5 5.5t3 5zM419 371l-37 89l-36 -89h73zM542 529q1 2 -6 8.5t-17 13t-19.5 10.5t-12.5 0q-18 -23 -26.5 -52t-19.5 -56q-2 -2 2 -5t10 -5.5t11 -4t7 0.5zM657 371q0 -57 -21.5 -107t-59 -87.5t-87.5 -59t-107 -21.5t-107 21.5t-87.5 59t-59.5 87.5t-22 107t22 107
t59.5 87.5t87.5 59t107 21.5t107 -21.5t87.5 -59t59 -87.5t21.5 -107zM677 371q0 61 -23 115t-63 94t-94 63.5t-115 23.5t-115 -23.5t-94.5 -63.5t-64 -94t-23.5 -115t23.5 -114.5t64 -94t94.5 -64t115 -23.5t115 23.5t94 64t63 94t23 114.5zM707 104h-26v-69h-19v69h-25v16
h70v-16zM724 371q0 -71 -27 -133t-73.5 -109t-109 -74t-132.5 -27q-71 0 -133 27t-108.5 74t-73.5 109t-27 133t27 133.5t73.5 109t108.5 73.5t133 27q70 0 132.5 -27t109 -73.5t73.5 -109t27 -133.5zM796 35h-15v69l-17 -69h-16l-17 69v-69h-16v85h25l17 -66l14 66h25v-85z
" />
    <glyph glyph-name="idieresis" unicode="&#xef;" 
d="M537 242q-154 -39 -310 0q10 -17 24.5 -35t34 -34t43.5 -26t53 -10q28 0 52 10t43.5 26t34.5 34t25 35zM600 340h-436l53 -84q83 -20 164.5 -19.5t164.5 19.5zM323 453q-13 27 -21 56t-25 52q-3 4 -12.5 0t-20 -10.5t-18 -13t-5.5 -8.5l72 -90q1 -2 6.5 -0.5t11 4
t9.5 5.5t3 5zM419 371l-37 89l-36 -89h73zM542 529q1 2 -6 8.5t-17 13t-19.5 10.5t-12.5 0q-18 -23 -26.5 -52t-19.5 -56q-2 -2 2 -5t10 -5.5t11 -4t7 0.5zM657 371q0 -57 -21.5 -107t-59 -87.5t-87.5 -59t-107 -21.5t-107 21.5t-87.5 59t-59.5 87.5t-22 107t22 107
t59.5 87.5t87.5 59t107 21.5t107 -21.5t87.5 -59t59 -87.5t21.5 -107zM677 371q0 61 -23 115t-63 94t-94 63.5t-115 23.5t-115 -23.5t-94.5 -63.5t-64 -94t-23.5 -115t23.5 -114.5t64 -94t94.5 -64t115 -23.5t115 23.5t94 64t63 94t23 114.5zM707 104h-26v-69h-19v69h-25v16
h70v-16zM724 371q0 -71 -27 -133t-73.5 -109t-109 -74t-132.5 -27q-71 0 -133 27t-108.5 74t-73.5 109t-27 133t27 133.5t73.5 109t108.5 73.5t133 27q70 0 132.5 -27t109 -73.5t73.5 -109t27 -133.5zM796 35h-15v69l-17 -69h-16l-17 69v-69h-16v85h25l17 -66l14 66h25v-85z
" />
    <glyph glyph-name="eth" unicode="&#xf0;" 
d="M537 242q-154 -39 -310 0q10 -17 24.5 -35t34 -34t43.5 -26t53 -10q28 0 52 10t43.5 26t34.5 34t25 35zM600 340h-436l53 -84q83 -20 164.5 -19.5t164.5 19.5zM323 453q-13 27 -21 56t-25 52q-3 4 -12.5 0t-20 -10.5t-18 -13t-5.5 -8.5l72 -90q1 -2 6.5 -0.5t11 4
t9.5 5.5t3 5zM419 371l-37 89l-36 -89h73zM542 529q1 2 -6 8.5t-17 13t-19.5 10.5t-12.5 0q-18 -23 -26.5 -52t-19.5 -56q-2 -2 2 -5t10 -5.5t11 -4t7 0.5zM657 371q0 -57 -21.5 -107t-59 -87.5t-87.5 -59t-107 -21.5t-107 21.5t-87.5 59t-59.5 87.5t-22 107t22 107
t59.5 87.5t87.5 59t107 21.5t107 -21.5t87.5 -59t59 -87.5t21.5 -107zM677 371q0 61 -23 115t-63 94t-94 63.5t-115 23.5t-115 -23.5t-94.5 -63.5t-64 -94t-23.5 -115t23.5 -114.5t64 -94t94.5 -64t115 -23.5t115 23.5t94 64t63 94t23 114.5zM707 104h-26v-69h-19v69h-25v16
h70v-16zM724 371q0 -71 -27 -133t-73.5 -109t-109 -74t-132.5 -27q-71 0 -133 27t-108.5 74t-73.5 109t-27 133t27 133.5t73.5 109t108.5 73.5t133 27q70 0 132.5 -27t109 -73.5t73.5 -109t27 -133.5zM796 35h-15v69l-17 -69h-16l-17 69v-69h-16v85h25l17 -66l14 66h25v-85z
" />
    <glyph glyph-name="ntilde" unicode="&#xf1;" 
d="M537 242q-154 -39 -310 0q10 -17 24.5 -35t34 -34t43.5 -26t53 -10q28 0 52 10t43.5 26t34.5 34t25 35zM600 340h-436l53 -84q83 -20 164.5 -19.5t164.5 19.5zM323 453q-13 27 -21 56t-25 52q-3 4 -12.5 0t-20 -10.5t-18 -13t-5.5 -8.5l72 -90q1 -2 6.5 -0.5t11 4
t9.5 5.5t3 5zM419 371l-37 89l-36 -89h73zM542 529q1 2 -6 8.5t-17 13t-19.5 10.5t-12.5 0q-18 -23 -26.5 -52t-19.5 -56q-2 -2 2 -5t10 -5.5t11 -4t7 0.5zM657 371q0 -57 -21.5 -107t-59 -87.5t-87.5 -59t-107 -21.5t-107 21.5t-87.5 59t-59.5 87.5t-22 107t22 107
t59.5 87.5t87.5 59t107 21.5t107 -21.5t87.5 -59t59 -87.5t21.5 -107zM677 371q0 61 -23 115t-63 94t-94 63.5t-115 23.5t-115 -23.5t-94.5 -63.5t-64 -94t-23.5 -115t23.5 -114.5t64 -94t94.5 -64t115 -23.5t115 23.5t94 64t63 94t23 114.5zM707 104h-26v-69h-19v69h-25v16
h70v-16zM724 371q0 -71 -27 -133t-73.5 -109t-109 -74t-132.5 -27q-71 0 -133 27t-108.5 74t-73.5 109t-27 133t27 133.5t73.5 109t108.5 73.5t133 27q70 0 132.5 -27t109 -73.5t73.5 -109t27 -133.5zM796 35h-15v69l-17 -69h-16l-17 69v-69h-16v85h25l17 -66l14 66h25v-85z
" />
    <glyph glyph-name="ograve" unicode="&#xf2;" 
d="M537 242q-154 -39 -310 0q10 -17 24.5 -35t34 -34t43.5 -26t53 -10q28 0 52 10t43.5 26t34.5 34t25 35zM600 340h-436l53 -84q83 -20 164.5 -19.5t164.5 19.5zM323 453q-13 27 -21 56t-25 52q-3 4 -12.5 0t-20 -10.5t-18 -13t-5.5 -8.5l72 -90q1 -2 6.5 -0.5t11 4
t9.5 5.5t3 5zM419 371l-37 89l-36 -89h73zM542 529q1 2 -6 8.5t-17 13t-19.5 10.5t-12.5 0q-18 -23 -26.5 -52t-19.5 -56q-2 -2 2 -5t10 -5.5t11 -4t7 0.5zM657 371q0 -57 -21.5 -107t-59 -87.5t-87.5 -59t-107 -21.5t-107 21.5t-87.5 59t-59.5 87.5t-22 107t22 107
t59.5 87.5t87.5 59t107 21.5t107 -21.5t87.5 -59t59 -87.5t21.5 -107zM677 371q0 61 -23 115t-63 94t-94 63.5t-115 23.5t-115 -23.5t-94.5 -63.5t-64 -94t-23.5 -115t23.5 -114.5t64 -94t94.5 -64t115 -23.5t115 23.5t94 64t63 94t23 114.5zM707 104h-26v-69h-19v69h-25v16
h70v-16zM724 371q0 -71 -27 -133t-73.5 -109t-109 -74t-132.5 -27q-71 0 -133 27t-108.5 74t-73.5 109t-27 133t27 133.5t73.5 109t108.5 73.5t133 27q70 0 132.5 -27t109 -73.5t73.5 -109t27 -133.5zM796 35h-15v69l-17 -69h-16l-17 69v-69h-16v85h25l17 -66l14 66h25v-85z
" />
    <glyph glyph-name="oacute" unicode="&#xf3;" 
d="M537 242q-154 -39 -310 0q10 -17 24.5 -35t34 -34t43.5 -26t53 -10q28 0 52 10t43.5 26t34.5 34t25 35zM600 340h-436l53 -84q83 -20 164.5 -19.5t164.5 19.5zM323 453q-13 27 -21 56t-25 52q-3 4 -12.5 0t-20 -10.5t-18 -13t-5.5 -8.5l72 -90q1 -2 6.5 -0.5t11 4
t9.5 5.5t3 5zM419 371l-37 89l-36 -89h73zM542 529q1 2 -6 8.5t-17 13t-19.5 10.5t-12.5 0q-18 -23 -26.5 -52t-19.5 -56q-2 -2 2 -5t10 -5.5t11 -4t7 0.5zM657 371q0 -57 -21.5 -107t-59 -87.5t-87.5 -59t-107 -21.5t-107 21.5t-87.5 59t-59.5 87.5t-22 107t22 107
t59.5 87.5t87.5 59t107 21.5t107 -21.5t87.5 -59t59 -87.5t21.5 -107zM677 371q0 61 -23 115t-63 94t-94 63.5t-115 23.5t-115 -23.5t-94.5 -63.5t-64 -94t-23.5 -115t23.5 -114.5t64 -94t94.5 -64t115 -23.5t115 23.5t94 64t63 94t23 114.5zM707 104h-26v-69h-19v69h-25v16
h70v-16zM724 371q0 -71 -27 -133t-73.5 -109t-109 -74t-132.5 -27q-71 0 -133 27t-108.5 74t-73.5 109t-27 133t27 133.5t73.5 109t108.5 73.5t133 27q70 0 132.5 -27t109 -73.5t73.5 -109t27 -133.5zM796 35h-15v69l-17 -69h-16l-17 69v-69h-16v85h25l17 -66l14 66h25v-85z
" />
    <glyph glyph-name="ocircumflex" unicode="&#xf4;" 
d="M537 242q-154 -39 -310 0q10 -17 24.5 -35t34 -34t43.5 -26t53 -10q28 0 52 10t43.5 26t34.5 34t25 35zM600 340h-436l53 -84q83 -20 164.5 -19.5t164.5 19.5zM323 453q-13 27 -21 56t-25 52q-3 4 -12.5 0t-20 -10.5t-18 -13t-5.5 -8.5l72 -90q1 -2 6.5 -0.5t11 4
t9.5 5.5t3 5zM419 371l-37 89l-36 -89h73zM542 529q1 2 -6 8.5t-17 13t-19.5 10.5t-12.5 0q-18 -23 -26.5 -52t-19.5 -56q-2 -2 2 -5t10 -5.5t11 -4t7 0.5zM657 371q0 -57 -21.5 -107t-59 -87.5t-87.5 -59t-107 -21.5t-107 21.5t-87.5 59t-59.5 87.5t-22 107t22 107
t59.5 87.5t87.5 59t107 21.5t107 -21.5t87.5 -59t59 -87.5t21.5 -107zM677 371q0 61 -23 115t-63 94t-94 63.5t-115 23.5t-115 -23.5t-94.5 -63.5t-64 -94t-23.5 -115t23.5 -114.5t64 -94t94.5 -64t115 -23.5t115 23.5t94 64t63 94t23 114.5zM707 104h-26v-69h-19v69h-25v16
h70v-16zM724 371q0 -71 -27 -133t-73.5 -109t-109 -74t-132.5 -27q-71 0 -133 27t-108.5 74t-73.5 109t-27 133t27 133.5t73.5 109t108.5 73.5t133 27q70 0 132.5 -27t109 -73.5t73.5 -109t27 -133.5zM796 35h-15v69l-17 -69h-16l-17 69v-69h-16v85h25l17 -66l14 66h25v-85z
" />
    <glyph glyph-name="otilde" unicode="&#xf5;" 
d="M537 242q-154 -39 -310 0q10 -17 24.5 -35t34 -34t43.5 -26t53 -10q28 0 52 10t43.5 26t34.5 34t25 35zM600 340h-436l53 -84q83 -20 164.5 -19.5t164.5 19.5zM323 453q-13 27 -21 56t-25 52q-3 4 -12.5 0t-20 -10.5t-18 -13t-5.5 -8.5l72 -90q1 -2 6.5 -0.5t11 4
t9.5 5.5t3 5zM419 371l-37 89l-36 -89h73zM542 529q1 2 -6 8.5t-17 13t-19.5 10.5t-12.5 0q-18 -23 -26.5 -52t-19.5 -56q-2 -2 2 -5t10 -5.5t11 -4t7 0.5zM657 371q0 -57 -21.5 -107t-59 -87.5t-87.5 -59t-107 -21.5t-107 21.5t-87.5 59t-59.5 87.5t-22 107t22 107
t59.5 87.5t87.5 59t107 21.5t107 -21.5t87.5 -59t59 -87.5t21.5 -107zM677 371q0 61 -23 115t-63 94t-94 63.5t-115 23.5t-115 -23.5t-94.5 -63.5t-64 -94t-23.5 -115t23.5 -114.5t64 -94t94.5 -64t115 -23.5t115 23.5t94 64t63 94t23 114.5zM707 104h-26v-69h-19v69h-25v16
h70v-16zM724 371q0 -71 -27 -133t-73.5 -109t-109 -74t-132.5 -27q-71 0 -133 27t-108.5 74t-73.5 109t-27 133t27 133.5t73.5 109t108.5 73.5t133 27q70 0 132.5 -27t109 -73.5t73.5 -109t27 -133.5zM796 35h-15v69l-17 -69h-16l-17 69v-69h-16v85h25l17 -66l14 66h25v-85z
" />
    <glyph glyph-name="odieresis" unicode="&#xf6;" 
d="M537 242q-154 -39 -310 0q10 -17 24.5 -35t34 -34t43.5 -26t53 -10q28 0 52 10t43.5 26t34.5 34t25 35zM600 340h-436l53 -84q83 -20 164.5 -19.5t164.5 19.5zM323 453q-13 27 -21 56t-25 52q-3 4 -12.5 0t-20 -10.5t-18 -13t-5.5 -8.5l72 -90q1 -2 6.5 -0.5t11 4
t9.5 5.5t3 5zM419 371l-37 89l-36 -89h73zM542 529q1 2 -6 8.5t-17 13t-19.5 10.5t-12.5 0q-18 -23 -26.5 -52t-19.5 -56q-2 -2 2 -5t10 -5.5t11 -4t7 0.5zM657 371q0 -57 -21.5 -107t-59 -87.5t-87.5 -59t-107 -21.5t-107 21.5t-87.5 59t-59.5 87.5t-22 107t22 107
t59.5 87.5t87.5 59t107 21.5t107 -21.5t87.5 -59t59 -87.5t21.5 -107zM677 371q0 61 -23 115t-63 94t-94 63.5t-115 23.5t-115 -23.5t-94.5 -63.5t-64 -94t-23.5 -115t23.5 -114.5t64 -94t94.5 -64t115 -23.5t115 23.5t94 64t63 94t23 114.5zM707 104h-26v-69h-19v69h-25v16
h70v-16zM724 371q0 -71 -27 -133t-73.5 -109t-109 -74t-132.5 -27q-71 0 -133 27t-108.5 74t-73.5 109t-27 133t27 133.5t73.5 109t108.5 73.5t133 27q70 0 132.5 -27t109 -73.5t73.5 -109t27 -133.5zM796 35h-15v69l-17 -69h-16l-17 69v-69h-16v85h25l17 -66l14 66h25v-85z
" />
    <glyph glyph-name="divide" unicode="&#xf7;" 
d="M537 242q-154 -39 -310 0q10 -17 24.5 -35t34 -34t43.5 -26t53 -10q28 0 52 10t43.5 26t34.5 34t25 35zM600 340h-436l53 -84q83 -20 164.5 -19.5t164.5 19.5zM323 453q-13 27 -21 56t-25 52q-3 4 -12.5 0t-20 -10.5t-18 -13t-5.5 -8.5l72 -90q1 -2 6.5 -0.5t11 4
t9.5 5.5t3 5zM419 371l-37 89l-36 -89h73zM542 529q1 2 -6 8.5t-17 13t-19.5 10.5t-12.5 0q-18 -23 -26.5 -52t-19.5 -56q-2 -2 2 -5t10 -5.5t11 -4t7 0.5zM657 371q0 -57 -21.5 -107t-59 -87.5t-87.5 -59t-107 -21.5t-107 21.5t-87.5 59t-59.5 87.5t-22 107t22 107
t59.5 87.5t87.5 59t107 21.5t107 -21.5t87.5 -59t59 -87.5t21.5 -107zM677 371q0 61 -23 115t-63 94t-94 63.5t-115 23.5t-115 -23.5t-94.5 -63.5t-64 -94t-23.5 -115t23.5 -114.5t64 -94t94.5 -64t115 -23.5t115 23.5t94 64t63 94t23 114.5zM707 104h-26v-69h-19v69h-25v16
h70v-16zM724 371q0 -71 -27 -133t-73.5 -109t-109 -74t-132.5 -27q-71 0 -133 27t-108.5 74t-73.5 109t-27 133t27 133.5t73.5 109t108.5 73.5t133 27q70 0 132.5 -27t109 -73.5t73.5 -109t27 -133.5zM796 35h-15v69l-17 -69h-16l-17 69v-69h-16v85h25l17 -66l14 66h25v-85z
" />
    <glyph glyph-name="oslash" unicode="&#xf8;" 
d="M537 242q-154 -39 -310 0q10 -17 24.5 -35t34 -34t43.5 -26t53 -10q28 0 52 10t43.5 26t34.5 34t25 35zM600 340h-436l53 -84q83 -20 164.5 -19.5t164.5 19.5zM323 453q-13 27 -21 56t-25 52q-3 4 -12.5 0t-20 -10.5t-18 -13t-5.5 -8.5l72 -90q1 -2 6.5 -0.5t11 4
t9.5 5.5t3 5zM419 371l-37 89l-36 -89h73zM542 529q1 2 -6 8.5t-17 13t-19.5 10.5t-12.5 0q-18 -23 -26.5 -52t-19.5 -56q-2 -2 2 -5t10 -5.5t11 -4t7 0.5zM657 371q0 -57 -21.5 -107t-59 -87.5t-87.5 -59t-107 -21.5t-107 21.5t-87.5 59t-59.5 87.5t-22 107t22 107
t59.5 87.5t87.5 59t107 21.5t107 -21.5t87.5 -59t59 -87.5t21.5 -107zM677 371q0 61 -23 115t-63 94t-94 63.5t-115 23.5t-115 -23.5t-94.5 -63.5t-64 -94t-23.5 -115t23.5 -114.5t64 -94t94.5 -64t115 -23.5t115 23.5t94 64t63 94t23 114.5zM707 104h-26v-69h-19v69h-25v16
h70v-16zM724 371q0 -71 -27 -133t-73.5 -109t-109 -74t-132.5 -27q-71 0 -133 27t-108.5 74t-73.5 109t-27 133t27 133.5t73.5 109t108.5 73.5t133 27q70 0 132.5 -27t109 -73.5t73.5 -109t27 -133.5zM796 35h-15v69l-17 -69h-16l-17 69v-69h-16v85h25l17 -66l14 66h25v-85z
" />
    <glyph glyph-name="ugrave" unicode="&#xf9;" 
d="M537 242q-154 -39 -310 0q10 -17 24.5 -35t34 -34t43.5 -26t53 -10q28 0 52 10t43.5 26t34.5 34t25 35zM600 340h-436l53 -84q83 -20 164.5 -19.5t164.5 19.5zM323 453q-13 27 -21 56t-25 52q-3 4 -12.5 0t-20 -10.5t-18 -13t-5.5 -8.5l72 -90q1 -2 6.5 -0.5t11 4
t9.5 5.5t3 5zM419 371l-37 89l-36 -89h73zM542 529q1 2 -6 8.5t-17 13t-19.5 10.5t-12.5 0q-18 -23 -26.5 -52t-19.5 -56q-2 -2 2 -5t10 -5.5t11 -4t7 0.5zM657 371q0 -57 -21.5 -107t-59 -87.5t-87.5 -59t-107 -21.5t-107 21.5t-87.5 59t-59.5 87.5t-22 107t22 107
t59.5 87.5t87.5 59t107 21.5t107 -21.5t87.5 -59t59 -87.5t21.5 -107zM677 371q0 61 -23 115t-63 94t-94 63.5t-115 23.5t-115 -23.5t-94.5 -63.5t-64 -94t-23.5 -115t23.5 -114.5t64 -94t94.5 -64t115 -23.5t115 23.5t94 64t63 94t23 114.5zM707 104h-26v-69h-19v69h-25v16
h70v-16zM724 371q0 -71 -27 -133t-73.5 -109t-109 -74t-132.5 -27q-71 0 -133 27t-108.5 74t-73.5 109t-27 133t27 133.5t73.5 109t108.5 73.5t133 27q70 0 132.5 -27t109 -73.5t73.5 -109t27 -133.5zM796 35h-15v69l-17 -69h-16l-17 69v-69h-16v85h25l17 -66l14 66h25v-85z
" />
    <glyph glyph-name="uacute" unicode="&#xfa;" 
d="M537 242q-154 -39 -310 0q10 -17 24.5 -35t34 -34t43.5 -26t53 -10q28 0 52 10t43.5 26t34.5 34t25 35zM600 340h-436l53 -84q83 -20 164.5 -19.5t164.5 19.5zM323 453q-13 27 -21 56t-25 52q-3 4 -12.5 0t-20 -10.5t-18 -13t-5.5 -8.5l72 -90q1 -2 6.5 -0.5t11 4
t9.5 5.5t3 5zM419 371l-37 89l-36 -89h73zM542 529q1 2 -6 8.5t-17 13t-19.5 10.5t-12.5 0q-18 -23 -26.5 -52t-19.5 -56q-2 -2 2 -5t10 -5.5t11 -4t7 0.5zM657 371q0 -57 -21.5 -107t-59 -87.5t-87.5 -59t-107 -21.5t-107 21.5t-87.5 59t-59.5 87.5t-22 107t22 107
t59.5 87.5t87.5 59t107 21.5t107 -21.5t87.5 -59t59 -87.5t21.5 -107zM677 371q0 61 -23 115t-63 94t-94 63.5t-115 23.5t-115 -23.5t-94.5 -63.5t-64 -94t-23.5 -115t23.5 -114.5t64 -94t94.5 -64t115 -23.5t115 23.5t94 64t63 94t23 114.5zM707 104h-26v-69h-19v69h-25v16
h70v-16zM724 371q0 -71 -27 -133t-73.5 -109t-109 -74t-132.5 -27q-71 0 -133 27t-108.5 74t-73.5 109t-27 133t27 133.5t73.5 109t108.5 73.5t133 27q70 0 132.5 -27t109 -73.5t73.5 -109t27 -133.5zM796 35h-15v69l-17 -69h-16l-17 69v-69h-16v85h25l17 -66l14 66h25v-85z
" />
    <glyph glyph-name="ucircumflex" unicode="&#xfb;" 
d="M537 242q-154 -39 -310 0q10 -17 24.5 -35t34 -34t43.5 -26t53 -10q28 0 52 10t43.5 26t34.5 34t25 35zM600 340h-436l53 -84q83 -20 164.5 -19.5t164.5 19.5zM323 453q-13 27 -21 56t-25 52q-3 4 -12.5 0t-20 -10.5t-18 -13t-5.5 -8.5l72 -90q1 -2 6.5 -0.5t11 4
t9.5 5.5t3 5zM419 371l-37 89l-36 -89h73zM542 529q1 2 -6 8.5t-17 13t-19.5 10.5t-12.5 0q-18 -23 -26.5 -52t-19.5 -56q-2 -2 2 -5t10 -5.5t11 -4t7 0.5zM657 371q0 -57 -21.5 -107t-59 -87.5t-87.5 -59t-107 -21.5t-107 21.5t-87.5 59t-59.5 87.5t-22 107t22 107
t59.5 87.5t87.5 59t107 21.5t107 -21.5t87.5 -59t59 -87.5t21.5 -107zM677 371q0 61 -23 115t-63 94t-94 63.5t-115 23.5t-115 -23.5t-94.5 -63.5t-64 -94t-23.5 -115t23.5 -114.5t64 -94t94.5 -64t115 -23.5t115 23.5t94 64t63 94t23 114.5zM707 104h-26v-69h-19v69h-25v16
h70v-16zM724 371q0 -71 -27 -133t-73.5 -109t-109 -74t-132.5 -27q-71 0 -133 27t-108.5 74t-73.5 109t-27 133t27 133.5t73.5 109t108.5 73.5t133 27q70 0 132.5 -27t109 -73.5t73.5 -109t27 -133.5zM796 35h-15v69l-17 -69h-16l-17 69v-69h-16v85h25l17 -66l14 66h25v-85z
" />
    <glyph glyph-name="udieresis" unicode="&#xfc;" 
d="M537 242q-154 -39 -310 0q10 -17 24.5 -35t34 -34t43.5 -26t53 -10q28 0 52 10t43.5 26t34.5 34t25 35zM600 340h-436l53 -84q83 -20 164.5 -19.5t164.5 19.5zM323 453q-13 27 -21 56t-25 52q-3 4 -12.5 0t-20 -10.5t-18 -13t-5.5 -8.5l72 -90q1 -2 6.5 -0.5t11 4
t9.5 5.5t3 5zM419 371l-37 89l-36 -89h73zM542 529q1 2 -6 8.5t-17 13t-19.5 10.5t-12.5 0q-18 -23 -26.5 -52t-19.5 -56q-2 -2 2 -5t10 -5.5t11 -4t7 0.5zM657 371q0 -57 -21.5 -107t-59 -87.5t-87.5 -59t-107 -21.5t-107 21.5t-87.5 59t-59.5 87.5t-22 107t22 107
t59.5 87.5t87.5 59t107 21.5t107 -21.5t87.5 -59t59 -87.5t21.5 -107zM677 371q0 61 -23 115t-63 94t-94 63.5t-115 23.5t-115 -23.5t-94.5 -63.5t-64 -94t-23.5 -115t23.5 -114.5t64 -94t94.5 -64t115 -23.5t115 23.5t94 64t63 94t23 114.5zM707 104h-26v-69h-19v69h-25v16
h70v-16zM724 371q0 -71 -27 -133t-73.5 -109t-109 -74t-132.5 -27q-71 0 -133 27t-108.5 74t-73.5 109t-27 133t27 133.5t73.5 109t108.5 73.5t133 27q70 0 132.5 -27t109 -73.5t73.5 -109t27 -133.5zM796 35h-15v69l-17 -69h-16l-17 69v-69h-16v85h25l17 -66l14 66h25v-85z
" />
    <glyph glyph-name="yacute" unicode="&#xfd;" 
d="M537 242q-154 -39 -310 0q10 -17 24.5 -35t34 -34t43.5 -26t53 -10q28 0 52 10t43.5 26t34.5 34t25 35zM600 340h-436l53 -84q83 -20 164.5 -19.5t164.5 19.5zM323 453q-13 27 -21 56t-25 52q-3 4 -12.5 0t-20 -10.5t-18 -13t-5.5 -8.5l72 -90q1 -2 6.5 -0.5t11 4
t9.5 5.5t3 5zM419 371l-37 89l-36 -89h73zM542 529q1 2 -6 8.5t-17 13t-19.5 10.5t-12.5 0q-18 -23 -26.5 -52t-19.5 -56q-2 -2 2 -5t10 -5.5t11 -4t7 0.5zM657 371q0 -57 -21.5 -107t-59 -87.5t-87.5 -59t-107 -21.5t-107 21.5t-87.5 59t-59.5 87.5t-22 107t22 107
t59.5 87.5t87.5 59t107 21.5t107 -21.5t87.5 -59t59 -87.5t21.5 -107zM677 371q0 61 -23 115t-63 94t-94 63.5t-115 23.5t-115 -23.5t-94.5 -63.5t-64 -94t-23.5 -115t23.5 -114.5t64 -94t94.5 -64t115 -23.5t115 23.5t94 64t63 94t23 114.5zM707 104h-26v-69h-19v69h-25v16
h70v-16zM724 371q0 -71 -27 -133t-73.5 -109t-109 -74t-132.5 -27q-71 0 -133 27t-108.5 74t-73.5 109t-27 133t27 133.5t73.5 109t108.5 73.5t133 27q70 0 132.5 -27t109 -73.5t73.5 -109t27 -133.5zM796 35h-15v69l-17 -69h-16l-17 69v-69h-16v85h25l17 -66l14 66h25v-85z
" />
    <glyph glyph-name="thorn" unicode="&#xfe;" 
d="M537 242q-154 -39 -310 0q10 -17 24.5 -35t34 -34t43.5 -26t53 -10q28 0 52 10t43.5 26t34.5 34t25 35zM600 340h-436l53 -84q83 -20 164.5 -19.5t164.5 19.5zM323 453q-13 27 -21 56t-25 52q-3 4 -12.5 0t-20 -10.5t-18 -13t-5.5 -8.5l72 -90q1 -2 6.5 -0.5t11 4
t9.5 5.5t3 5zM419 371l-37 89l-36 -89h73zM542 529q1 2 -6 8.5t-17 13t-19.5 10.5t-12.5 0q-18 -23 -26.5 -52t-19.5 -56q-2 -2 2 -5t10 -5.5t11 -4t7 0.5zM657 371q0 -57 -21.5 -107t-59 -87.5t-87.5 -59t-107 -21.5t-107 21.5t-87.5 59t-59.5 87.5t-22 107t22 107
t59.5 87.5t87.5 59t107 21.5t107 -21.5t87.5 -59t59 -87.5t21.5 -107zM677 371q0 61 -23 115t-63 94t-94 63.5t-115 23.5t-115 -23.5t-94.5 -63.5t-64 -94t-23.5 -115t23.5 -114.5t64 -94t94.5 -64t115 -23.5t115 23.5t94 64t63 94t23 114.5zM707 104h-26v-69h-19v69h-25v16
h70v-16zM724 371q0 -71 -27 -133t-73.5 -109t-109 -74t-132.5 -27q-71 0 -133 27t-108.5 74t-73.5 109t-27 133t27 133.5t73.5 109t108.5 73.5t133 27q70 0 132.5 -27t109 -73.5t73.5 -109t27 -133.5zM796 35h-15v69l-17 -69h-16l-17 69v-69h-16v85h25l17 -66l14 66h25v-85z
" />
    <glyph glyph-name="ydieresis" unicode="&#xff;" 
d="M537 242q-154 -39 -310 0q10 -17 24.5 -35t34 -34t43.5 -26t53 -10q28 0 52 10t43.5 26t34.5 34t25 35zM600 340h-436l53 -84q83 -20 164.5 -19.5t164.5 19.5zM323 453q-13 27 -21 56t-25 52q-3 4 -12.5 0t-20 -10.5t-18 -13t-5.5 -8.5l72 -90q1 -2 6.5 -0.5t11 4
t9.5 5.5t3 5zM419 371l-37 89l-36 -89h73zM542 529q1 2 -6 8.5t-17 13t-19.5 10.5t-12.5 0q-18 -23 -26.5 -52t-19.5 -56q-2 -2 2 -5t10 -5.5t11 -4t7 0.5zM657 371q0 -57 -21.5 -107t-59 -87.5t-87.5 -59t-107 -21.5t-107 21.5t-87.5 59t-59.5 87.5t-22 107t22 107
t59.5 87.5t87.5 59t107 21.5t107 -21.5t87.5 -59t59 -87.5t21.5 -107zM677 371q0 61 -23 115t-63 94t-94 63.5t-115 23.5t-115 -23.5t-94.5 -63.5t-64 -94t-23.5 -115t23.5 -114.5t64 -94t94.5 -64t115 -23.5t115 23.5t94 64t63 94t23 114.5zM707 104h-26v-69h-19v69h-25v16
h70v-16zM724 371q0 -71 -27 -133t-73.5 -109t-109 -74t-132.5 -27q-71 0 -133 27t-108.5 74t-73.5 109t-27 133t27 133.5t73.5 109t108.5 73.5t133 27q70 0 132.5 -27t109 -73.5t73.5 -109t27 -133.5zM796 35h-15v69l-17 -69h-16l-17 69v-69h-16v85h25l17 -66l14 66h25v-85z
" />
    <glyph glyph-name="OE" unicode="&#x152;" horiz-adv-x="587" 
d="M542 727l25 -135h-158v-174h120v-125h-120v-158h152l-25 -135h-403q-30 0 -50 8.5t-32 22.5t-16.5 32.5t-4.5 39.5v530q0 43 23 68.5t74 25.5h415zM189 592q-13 0 -13 -14v-428q0 -8 2.5 -11.5t11.5 -3.5h69v457h-70z" />
    <glyph glyph-name="oe" unicode="&#x153;" 
d="M537 242q-154 -39 -310 0q10 -17 24.5 -35t34 -34t43.5 -26t53 -10q28 0 52 10t43.5 26t34.5 34t25 35zM600 340h-436l53 -84q83 -20 164.5 -19.5t164.5 19.5zM323 453q-13 27 -21 56t-25 52q-3 4 -12.5 0t-20 -10.5t-18 -13t-5.5 -8.5l72 -90q1 -2 6.5 -0.5t11 4
t9.5 5.5t3 5zM419 371l-37 89l-36 -89h73zM542 529q1 2 -6 8.5t-17 13t-19.5 10.5t-12.5 0q-18 -23 -26.5 -52t-19.5 -56q-2 -2 2 -5t10 -5.5t11 -4t7 0.5zM657 371q0 -57 -21.5 -107t-59 -87.5t-87.5 -59t-107 -21.5t-107 21.5t-87.5 59t-59.5 87.5t-22 107t22 107
t59.5 87.5t87.5 59t107 21.5t107 -21.5t87.5 -59t59 -87.5t21.5 -107zM677 371q0 61 -23 115t-63 94t-94 63.5t-115 23.5t-115 -23.5t-94.5 -63.5t-64 -94t-23.5 -115t23.5 -114.5t64 -94t94.5 -64t115 -23.5t115 23.5t94 64t63 94t23 114.5zM707 104h-26v-69h-19v69h-25v16
h70v-16zM724 371q0 -71 -27 -133t-73.5 -109t-109 -74t-132.5 -27q-71 0 -133 27t-108.5 74t-73.5 109t-27 133t27 133.5t73.5 109t108.5 73.5t133 27q70 0 132.5 -27t109 -73.5t73.5 -109t27 -133.5zM796 35h-15v69l-17 -69h-16l-17 69v-69h-16v85h25l17 -66l14 66h25v-85z
" />
    <glyph glyph-name="Scaron" unicode="&#x160;" horiz-adv-x="386" 
d="M259 0q97 0 97 97v252q0 41 -18.5 57.5t-53.5 16.5h-91q-11 0 -16.5 4t-5.5 15v134q0 16 18 16h164l-25 135h-201q-51 0 -74 -25.5t-23 -68.5v-248q0 -27 6.5 -43t18 -25t26 -11.5t30.5 -2.5h75q15 0 21 -3t6 -18v-132q0 -15 -17 -15h-156l26 -135h193zM139 762l-112 131
h116l54 -72l54 72h118l-113 -131h-117z" />
    <glyph glyph-name="scaron" unicode="&#x161;" 
d="M537 242q-154 -39 -310 0q10 -17 24.5 -35t34 -34t43.5 -26t53 -10q28 0 52 10t43.5 26t34.5 34t25 35zM600 340h-436l53 -84q83 -20 164.5 -19.5t164.5 19.5zM323 453q-13 27 -21 56t-25 52q-3 4 -12.5 0t-20 -10.5t-18 -13t-5.5 -8.5l72 -90q1 -2 6.5 -0.5t11 4
t9.5 5.5t3 5zM419 371l-37 89l-36 -89h73zM542 529q1 2 -6 8.5t-17 13t-19.5 10.5t-12.5 0q-18 -23 -26.5 -52t-19.5 -56q-2 -2 2 -5t10 -5.5t11 -4t7 0.5zM657 371q0 -57 -21.5 -107t-59 -87.5t-87.5 -59t-107 -21.5t-107 21.5t-87.5 59t-59.5 87.5t-22 107t22 107
t59.5 87.5t87.5 59t107 21.5t107 -21.5t87.5 -59t59 -87.5t21.5 -107zM677 371q0 61 -23 115t-63 94t-94 63.5t-115 23.5t-115 -23.5t-94.5 -63.5t-64 -94t-23.5 -115t23.5 -114.5t64 -94t94.5 -64t115 -23.5t115 23.5t94 64t63 94t23 114.5zM707 104h-26v-69h-19v69h-25v16
h70v-16zM724 371q0 -71 -27 -133t-73.5 -109t-109 -74t-132.5 -27q-71 0 -133 27t-108.5 74t-73.5 109t-27 133t27 133.5t73.5 109t108.5 73.5t133 27q70 0 132.5 -27t109 -73.5t73.5 -109t27 -133.5zM796 35h-15v69l-17 -69h-16l-17 69v-69h-16v85h25l17 -66l14 66h25v-85z
" />
    <glyph glyph-name="Ydieresis" unicode="&#x178;" horiz-adv-x="451" 
d="M302 0h-153v184l-139 541h150l65 -342l66 342h150l-139 -541v-184zM53 828q0 31 21 53t53 22q31 0 52 -22t21 -53t-21 -53t-52 -22q-32 0 -53 22t-21 53zM251 828q0 31 21 53t52 22t52.5 -22t21.5 -53t-21.5 -53t-52.5 -22t-52 22t-21 53z" />
    <glyph glyph-name="florin" unicode="&#x192;" horiz-adv-x="495" 
d="M413 592q-18 0 -27.5 -9.5t-13.5 -25.5l-23 -89h89l-34 -84h-80l-88 -356q-11 -43 -29 -65.5t-42.5 -31.5t-56 -9t-69.5 2l-39 72q20 0 35.5 -0.5t27 3t19.5 13.5t14 31l90 341h-44l28 84h36l46 183q11 44 41 60t61 16h96l25 -135h-62z" />
    <glyph glyph-name="circumflex" unicode="&#x2c6;" horiz-adv-x="463" 
d="M290 917l113 -131h-118l-54 72l-54 -72h-116l112 131h117z" />
    <glyph glyph-name="tilde" unicode="&#x2dc;" horiz-adv-x="463" 
d="M400 922q5 -57 -18.5 -92t-80.5 -35q-23 0 -40 6.5t-32.5 14t-31 14t-34.5 6.5q-37 0 -37 -42h-63q-2 60 27.5 94t77.5 34q21 0 39 -6.5t34 -15t30.5 -15t27.5 -6.5q17 0 28.5 11.5t9.5 31.5h63z" />
    <glyph glyph-name="Alpha" unicode="&#x391;" horiz-adv-x="437" 
d="M169 90l-13 -90h-146l131 727h155l131 -727h-146l-13 90h-99zM185 205h67l-33 259z" />
    <glyph glyph-name="Beta" unicode="&#x392;" horiz-adv-x="436" 
d="M174 600v-192h68q8 0 13 4.5t5 14.5v159q0 14 -13 14h-73zM262 277q0 12 -6 16.5t-16 4.5h-66v-171h73q9 0 12 3.5t3 11.5v135zM399 438q0 -27 -10.5 -46.5t-39.5 -27.5q30 -2 43.5 -21t13.5 -43v-188q0 -60 -25 -86t-88 -26h-263v727h272q97 0 97 -97v-192z" />
    <glyph glyph-name="Gamma" unicode="&#x393;" horiz-adv-x="352" 
d="M30 727h282l25 -135h-158v-592h-149v727z" />
    <glyph glyph-name="Delta" unicode="&#x394;" horiz-adv-x="440" 
d="M263 135l-43 321l-43 -321h86zM430 0h-420l136 727h148z" />
    <glyph glyph-name="Delta" unicode="&#x2206;" horiz-adv-x="440" 
d="M263 135l-43 321l-43 -321h86zM430 0h-420l136 727h148z" />
    <glyph glyph-name="Epsilon" unicode="&#x395;" horiz-adv-x="357" 
d="M30 727h282l25 -135h-158v-174h120v-125h-120v-158h152l-25 -135h-276v727z" />
    <glyph glyph-name="Zeta" unicode="&#x396;" horiz-adv-x="371" 
d="M205 135h136l-25 -135h-306l163 592h-151l25 135h314z" />
    <glyph glyph-name="Eta" unicode="&#x397;" horiz-adv-x="435" 
d="M405 0h-148v290h-79v-290h-148v727h148v-312h79v312h148v-727z" />
    <glyph glyph-name="Theta" unicode="&#x398;" horiz-adv-x="436" 
d="M174 143q0 -8 3 -12t12 -4h59q14 0 14 16v162h-88v-162zM262 585q0 15 -14 15h-60q-14 0 -14 -15v-163h88v163zM406 103q0 -21 -4.5 -39.5t-16.5 -32.5t-32 -22.5t-50 -8.5h-170q-30 0 -50 8.5t-32 22.5t-16.5 32.5t-4.5 39.5v530q0 43 23 68.5t74 25.5h182
q51 0 74 -25.5t23 -68.5v-530z" />
    <glyph glyph-name="Iota" unicode="&#x399;" horiz-adv-x="209" 
d="M32 727h145v-727h-145v727z" />
    <glyph glyph-name="Kappa" unicode="&#x39a;" horiz-adv-x="434" 
d="M178 414h22l74 313h150l-87 -336l86 -391h-159l-57 299h-29v-299h-148v727h148v-313v0z" />
    <glyph glyph-name="Lambda" unicode="&#x39b;" horiz-adv-x="436" 
d="M218 436l-58 -436h-150l130 727h156l130 -727h-150z" />
    <glyph glyph-name="Mu" unicode="&#x39c;" horiz-adv-x="525" 
d="M171 342v-342h-141v727h153l79 -308l79 308h154v-727h-141v342l-92 -290z" />
    <glyph glyph-name="Nu" unicode="&#x39d;" horiz-adv-x="421" 
d="M30 727h138l74 -293v293h149v-727h-149l-78 303v-303h-134v727z" />
    <glyph glyph-name="Xi" unicode="&#x39e;" horiz-adv-x="386" 
d="M341 592h-296l-25 135h346zM75 293h236v125h-236v-125zM45 135h296l25 -135h-346z" />
    <glyph glyph-name="Omicron" unicode="&#x39f;" horiz-adv-x="436" 
d="M189 600q-13 0 -13 -14v-444q0 -8 2.5 -11.5t11.5 -3.5h55q9 0 11.5 3.5t2.5 11.5v444q0 14 -13 14h-57zM406 103q0 -21 -4.5 -39.5t-16.5 -32.5t-32 -22.5t-50 -8.5h-170q-30 0 -50 8.5t-32 22.5t-16.5 32.5t-4.5 39.5v530q0 43 23 68.5t74 25.5h182q51 0 74 -25.5
t23 -68.5v-530z" />
    <glyph glyph-name="Pi" unicode="&#x3a0;" horiz-adv-x="435" 
d="M405 0h-148v592h-79v-592h-148v727h375v-727z" />
    <glyph glyph-name="Rho" unicode="&#x3a1;" horiz-adv-x="428" 
d="M174 600v-287h72q9 0 11.5 3.5t2.5 11.5v258q0 14 -13 14h-73zM401 287q0 -43 -23.5 -68.5t-74.5 -25.5h-129v-193h-144v727h273q51 0 74.5 -25t23.5 -68v-347z" />
    <glyph glyph-name="Sigma" unicode="&#x3a3;" horiz-adv-x="382" 
d="M334 0h-324l116 363l-112 364h328l25 -135h-156l78 -229l-77 -228h147z" />
    <glyph glyph-name="Tau" unicode="&#x3a4;" horiz-adv-x="362" 
d="M316 727l36 -135h-97v-592h-148v592h-97l38 135h268z" />
    <glyph glyph-name="Upsilon" unicode="&#x3a5;" horiz-adv-x="451" 
d="M302 0h-153v184l-139 543h150l65 -344l66 344h150l-139 -543v-184z" />
    <glyph glyph-name="Phi" unicode="&#x3a6;" horiz-adv-x="564" 
d="M229 0h-98q-47 0 -72.5 23.5t-25.5 71.5v537q0 48 25.5 71.5t72.5 23.5h98v30h108v-30h96q47 0 72.5 -23.5t25.5 -71.5v-537q0 -48 -25.5 -71.5t-72.5 -23.5h-96v-30h-108v30zM391 584q0 8 -2.5 11.5t-11.5 3.5h-40v-471h41q13 0 13 14v442zM175 143q0 -8 2.5 -11.5
t11.5 -3.5h40v471h-41q-13 0 -13 -14v-442z" />
    <glyph glyph-name="Chi" unicode="&#x3a7;" horiz-adv-x="425" 
d="M312 378l103 -378h-147l-56 255l-55 -255h-147l103 378l-99 349h144l54 -257l56 257h143z" />
    <glyph glyph-name="Psi" unicode="&#x3a8;" horiz-adv-x="633" 
d="M248 0v135h-106q-60 0 -86 25t-26 85v482h143v-450q0 -8 2.5 -12t11.5 -4h61v466h137v-466h61q9 0 11.5 4t2.5 12v450h143v-482q0 -60 -26 -85t-86 -25h-106v-135h-137z" />
    <glyph glyph-name="Omega" unicode="&#x3a9;" horiz-adv-x="477" 
d="M349 727q46 0 71.5 -23.5t25.5 -71.5v-339q0 -32 -2 -54t-10 -36.5t-24.5 -23t-46.5 -11.5v-33h94l-24 -135h-168v236q17 0 23 5.5t6 22.5v310q0 19 -2 22.5t-20 3.5h-67q-18 0 -20 -3.5t-2 -22.5v-310q0 -17 6 -22.5t23 -5.5v-236h-168l-24 135h94v33q-30 3 -46.5 11.5
t-24.5 23t-10 36.5t-2 54v339q0 48 25.5 71.5t71.5 23.5h221z" />
    <glyph glyph-name="Omega" unicode="&#x2126;" horiz-adv-x="477" 
d="M349 727q46 0 71.5 -23.5t25.5 -71.5v-339q0 -32 -2 -54t-10 -36.5t-24.5 -23t-46.5 -11.5v-33h94l-24 -135h-168v236q17 0 23 5.5t6 22.5v310q0 19 -2 22.5t-20 3.5h-67q-18 0 -20 -3.5t-2 -22.5v-310q0 -17 6 -22.5t23 -5.5v-236h-168l-24 135h94v33q-30 3 -46.5 11.5
t-24.5 23t-10 36.5t-2 54v339q0 48 25.5 71.5t71.5 23.5h221z" />
    <glyph glyph-name="afii10023" unicode="&#x401;" horiz-adv-x="357" 
d="M30 727h282l25 -135h-158v-174h120v-125h-120v-158h152l-25 -135h-276v727zM7 828q0 31 21 53t53 22q31 0 52 -22t21 -53t-21 -53t-52 -22q-32 0 -53 22t-21 53zM205 828q0 31 21 53t52 22t52.5 -22t21.5 -53t-21.5 -53t-52.5 -22t-52 22t-21 53z" />
    <glyph glyph-name="afii10017" unicode="&#x410;" horiz-adv-x="437" 
d="M169 90l-13 -90h-146l131 727h155l131 -727h-146l-13 90h-99zM185 205h67l-33 259z" />
    <glyph glyph-name="afii10018" unicode="&#x411;" horiz-adv-x="431" 
d="M247 127q13 0 13 14v168q0 8 -2.5 11.5t-11.5 3.5h-72v-197h73zM30 727h323l25 -135h-204v-148h129q51 0 74.5 -25.5t23.5 -68.5v-257q0 -43 -23.5 -68t-74.5 -25h-273v727z" />
    <glyph glyph-name="afii10019" unicode="&#x412;" horiz-adv-x="436" 
d="M174 600v-192h68q8 0 13 4.5t5 14.5v159q0 14 -13 14h-73zM262 277q0 12 -6 16.5t-16 4.5h-66v-171h73q9 0 12 3.5t3 11.5v135zM399 438q0 -27 -10.5 -46.5t-39.5 -27.5q30 -2 43.5 -21t13.5 -43v-188q0 -60 -25 -86t-88 -26h-263v727h272q97 0 97 -97v-192z" />
    <glyph glyph-name="afii10020" unicode="&#x413;" horiz-adv-x="347" 
d="M30 727h272l25 -135h-148v-592h-149v727z" />
    <glyph glyph-name="afii10021" unicode="&#x414;" horiz-adv-x="537" 
d="M329 135v457h-70q-2 -56 -4 -115t-6 -117.5t-11 -115.5t-18 -109h109zM155 -107l-135 -25v267h39q6 6 16 57t19.5 132.5t16.5 185.5t7 217h359v-592h40v-242l-135 -25v132h-227v-107z" />
    <glyph glyph-name="afii10022" unicode="&#x415;" horiz-adv-x="357" 
d="M30 727h282l25 -135h-158v-174h120v-125h-120v-158h152l-25 -135h-276v727z" />
    <glyph glyph-name="afii10024" unicode="&#x416;" horiz-adv-x="730" 
d="M292 727h146v-313h20l93 292q7 21 32 21h107l25 -135h-51q-8 0 -10 -7l-58 -193l114 -392h-161l-81 302h-30v-302h-146v302h-30l-81 -302h-161l114 392l-58 193q-2 7 -10 7h-51l25 135h107q25 0 32 -21l93 -292h20v313z" />
    <glyph glyph-name="afii10025" unicode="&#x417;" horiz-adv-x="362" 
d="M46 0l-25 135h145q10 0 15 2.5t5 15.5v119q0 8 -3 13t-15 5h-111v125h109q12 0 16 4t4 16v139q0 11 -4.5 14.5t-12.5 3.5h-149l25 135h186q97 0 97 -95v-203q0 -25 -10.5 -43t-45.5 -21q37 0 48.5 -21.5t11.5 -50.5v-196q0 -97 -97 -97h-189z" />
    <glyph glyph-name="afii10026" unicode="&#x418;" horiz-adv-x="445" 
d="M178 280l89 417v30h148v-727h-148v446l-89 -416v-30h-148v727h148v-447z" />
    <glyph glyph-name="afii10027" unicode="&#x419;" horiz-adv-x="445" 
d="M178 280l89 417v30h148v-727h-148v446l-89 -416v-30h-148v727h148v-447zM382 893q-2 -44 -15.5 -71t-35.5 -41.5t-50 -19.5t-58 -5t-58 5t-50 19.5t-36 41.5t-15 71h88q0 -24 5.5 -38.5t15.5 -22t22.5 -9.5t27.5 -2q16 0 29 2t22.5 9.5t14.5 22t5 38.5h88z" />
    <glyph glyph-name="afii10028" unicode="&#x41a;" horiz-adv-x="465" 
d="M178 414h20l93 292q7 21 32 21h107l25 -135h-51q-8 0 -10 -7l-58 -193l114 -392h-161l-81 302h-30v-302h-148v727h148v-313z" />
    <glyph glyph-name="afii10029" unicode="&#x41b;" horiz-adv-x="484" 
d="M454 0h-148v592h-79v-592h-192l-25 135h69v592h375v-727z" />
    <glyph glyph-name="afii10030" unicode="&#x41c;" horiz-adv-x="525" 
d="M171 342v-342h-141v727h153l79 -308l79 308h154v-727h-141v342l-92 -290z" />
    <glyph glyph-name="afii10031" unicode="&#x41d;" horiz-adv-x="435" 
d="M405 0h-148v290h-79v-290h-148v727h148v-312h79v312h148v-727z" />
    <glyph glyph-name="afii10032" unicode="&#x41e;" horiz-adv-x="436" 
d="M189 600q-13 0 -13 -14v-444q0 -8 2.5 -11.5t11.5 -3.5h55q9 0 11.5 3.5t2.5 11.5v444q0 14 -13 14h-57zM406 103q0 -21 -4.5 -39.5t-16.5 -32.5t-32 -22.5t-50 -8.5h-170q-30 0 -50 8.5t-32 22.5t-16.5 32.5t-4.5 39.5v530q0 43 23 68.5t74 25.5h182q51 0 74 -25.5
t23 -68.5v-530z" />
    <glyph glyph-name="afii10033" unicode="&#x41f;" horiz-adv-x="435" 
d="M405 0h-148v592h-79v-592h-148v727h375v-727z" />
    <glyph glyph-name="afii10034" unicode="&#x420;" horiz-adv-x="428" 
d="M174 600v-287h72q9 0 11.5 3.5t2.5 11.5v258q0 14 -13 14h-73zM401 287q0 -43 -23.5 -68.5t-74.5 -25.5h-129v-193h-144v727h273q51 0 74.5 -25t23.5 -68v-347z" />
    <glyph glyph-name="afii10035" unicode="&#x421;" horiz-adv-x="351" 
d="M141 0q-62 0 -86.5 25t-24.5 85v528q0 43 25.5 66t62.5 23h188l25 -135h-139q-13 0 -13 -14v-429q0 -14 13 -14h139l-26 -135h-164z" />
    <glyph glyph-name="afii10036" unicode="&#x422;" horiz-adv-x="362" 
d="M316 727l36 -135h-97v-592h-148v592h-97l38 135h268z" />
    <glyph glyph-name="afii10037" unicode="&#x423;" horiz-adv-x="475" 
d="M320 727h145l-155 -639q-5 -21 -12 -37t-19 -27.5t-30.5 -17.5t-45.5 -6h-114l-25 135h98q25 0 16 25l-168 567h154l88 -367z" />
    <glyph glyph-name="afii10038" unicode="&#x424;" horiz-adv-x="584" 
d="M229 60h-101q-47 0 -72.5 23.5t-25.5 71.5v417q0 48 25.5 71.5t72.5 23.5h101v60h128v-60h99q47 0 72.5 -23.5t25.5 -71.5v-417q0 -48 -25.5 -71.5t-72.5 -23.5h-99v-60h-128v60zM414 524q0 8 -2.5 11.5t-11.5 3.5h-43v-351h44q13 0 13 14v322zM172 203q0 -8 2.5 -11.5
t11.5 -3.5h43v351h-44q-13 0 -13 -14v-322z" />
    <glyph glyph-name="afii10039" unicode="&#x425;" horiz-adv-x="425" 
d="M312 378l103 -378h-147l-56 255l-55 -255h-147l103 378l-99 349h144l54 -257l56 257h143z" />
    <glyph glyph-name="afii10040" unicode="&#x426;" horiz-adv-x="475" 
d="M405 135h40v-242l-135 -25v132h-280v727h148v-592h79v592h148v-592z" />
    <glyph glyph-name="afii10041" unicode="&#x427;" horiz-adv-x="445" 
d="M267 727h148v-727h-148v292h-127q-62 0 -86 24.5t-24 84.5v326h148v-292q0 -8 2.5 -12t11.5 -4h75v308z" />
    <glyph glyph-name="afii10042" unicode="&#x428;" horiz-adv-x="662" 
d="M632 0h-602v727h148v-592h79v592h148v-592h79v592h148v-727z" />
    <glyph glyph-name="afii10043" unicode="&#x429;" horiz-adv-x="697" 
d="M632 135h40v-242l-135 -25v132h-507v727h148v-592h79v592h148v-592h79v592h148v-592z" />
    <glyph glyph-name="afii10044" unicode="&#x42a;" horiz-adv-x="535" 
d="M275 444h132q51 0 74.5 -25.5t23.5 -68.5v-257q0 -43 -23.5 -68t-74.5 -25h-280v592h-117l38 135h227v-283zM350 127q13 0 13 14v168q0 8 -2.5 11.5t-11.5 3.5h-74v-197h75z" />
    <glyph glyph-name="afii10045" unicode="&#x42b;" horiz-adv-x="644" 
d="M614 0h-148v727h148v-727zM178 727h-148v-727h280q51 0 74.5 25t23.5 68v257q0 43 -23.5 68.5t-74.5 25.5h-132v283zM178 127v197h74q9 0 11.5 -3.5t2.5 -11.5v-168q0 -14 -13 -14h-75z" />
    <glyph glyph-name="afii10046" unicode="&#x42c;" horiz-adv-x="438" 
d="M178 444h132q51 0 74.5 -25.5t23.5 -68.5v-257q0 -43 -23.5 -68t-74.5 -25h-280v727h148v-283zM253 127q13 0 13 14v168q0 8 -2.5 11.5t-11.5 3.5h-74v-197h75z" />
    <glyph glyph-name="afii10047" unicode="&#x42d;" horiz-adv-x="351" 
d="M172 293h-120v125h120v160q0 14 -13 14h-139l25 135h188q37 0 62.5 -23t25.5 -66v-528q0 -60 -24.5 -85t-86.5 -25h-164l-26 135h139q13 0 13 14v144z" />
    <glyph glyph-name="afii10048" unicode="&#x42e;" horiz-adv-x="660" 
d="M630 103q0 -21 -4.5 -39.5t-16.5 -32.5t-32 -22.5t-50 -8.5h-170q-30 0 -50 8.5t-32 22.5t-16.5 32.5t-4.5 39.5v197h-79v-300h-145v727h145v-301h79v207q0 43 23 68.5t74 25.5h182q51 0 74 -25.5t23 -68.5v-530zM413 600q-13 0 -13 -14v-444q0 -8 2.5 -11.5t11.5 -3.5
h55q9 0 11.5 3.5t2.5 11.5v444q0 14 -13 14h-57z" />
    <glyph glyph-name="afii10049" unicode="&#x42f;" horiz-adv-x="433" 
d="M30 630q0 97 97 97h276v-727h-142v229h-19q-20 0 -27.5 -15.5t-11.5 -32.5l-44 -181h-148l47 183q4 17 13 32t26 21q-27 0 -47 16.5t-20 44.5v333zM187 600q-14 0 -14 -15v-222q0 -15 14 -15h74v252h-74z" />
    <glyph glyph-name="uni0430" unicode="&#x430;" horiz-adv-x="437" 
d="M169 90l-13 -90h-146l131 727h155l131 -727h-146l-13 90h-99zM185 205h67l-33 259z" />
    <glyph glyph-name="uni0431" unicode="&#x431;" horiz-adv-x="431" 
d="M247 127q13 0 13 14v168q0 8 -2.5 11.5t-11.5 3.5h-72v-197h73zM30 727h323l25 -135h-204v-148h129q51 0 74.5 -25.5t23.5 -68.5v-257q0 -43 -23.5 -68t-74.5 -25h-273v727z" />
    <glyph glyph-name="uni0432" unicode="&#x432;" horiz-adv-x="436" 
d="M174 600v-192h68q8 0 13 4.5t5 14.5v159q0 14 -13 14h-73zM262 277q0 12 -6 16.5t-16 4.5h-66v-171h73q9 0 12 3.5t3 11.5v135zM399 438q0 -27 -10.5 -46.5t-39.5 -27.5q30 -2 43.5 -21t13.5 -43v-188q0 -60 -25 -86t-88 -26h-263v727h272q97 0 97 -97v-192z" />
    <glyph glyph-name="uni0433" unicode="&#x433;" horiz-adv-x="347" 
d="M30 727h272l25 -135h-148v-592h-149v727z" />
    <glyph glyph-name="uni0434" unicode="&#x434;" horiz-adv-x="537" 
d="M329 135v457h-70q-2 -56 -4 -115t-6 -117.5t-11 -115.5t-18 -109h109zM155 -107l-135 -25v267h39q6 6 16 57t19.5 132.5t16.5 185.5t7 217h359v-592h40v-242l-135 -25v132h-227v-107z" />
    <glyph glyph-name="uni0435" unicode="&#x435;" horiz-adv-x="357" 
d="M30 727h282l25 -135h-158v-174h120v-125h-120v-158h152l-25 -135h-276v727z" />
    <glyph glyph-name="uni0436" unicode="&#x436;" horiz-adv-x="730" 
d="M292 727h146v-313h20l93 292q7 21 32 21h107l25 -135h-51q-8 0 -10 -7l-58 -193l114 -392h-161l-81 302h-30v-302h-146v302h-30l-81 -302h-161l114 392l-58 193q-2 7 -10 7h-51l25 135h107q25 0 32 -21l93 -292h20v313z" />
    <glyph glyph-name="uni0437" unicode="&#x437;" horiz-adv-x="362" 
d="M46 0l-25 135h145q10 0 15 2.5t5 15.5v119q0 8 -3 13t-15 5h-111v125h109q12 0 16 4t4 16v139q0 11 -4.5 14.5t-12.5 3.5h-149l25 135h186q97 0 97 -95v-203q0 -25 -10.5 -43t-45.5 -21q37 0 48.5 -21.5t11.5 -50.5v-196q0 -97 -97 -97h-189z" />
    <glyph glyph-name="uni0438" unicode="&#x438;" horiz-adv-x="445" 
d="M178 280l89 417v30h148v-727h-148v446l-89 -416v-30h-148v727h148v-447z" />
    <glyph glyph-name="uni0439" unicode="&#x439;" horiz-adv-x="445" 
d="M178 280l89 417v30h148v-727h-148v446l-89 -416v-30h-148v727h148v-447zM382 893q-2 -44 -15.5 -71t-35.5 -41.5t-50 -19.5t-58 -5t-58 5t-50 19.5t-36 41.5t-15 71h88q0 -24 5.5 -38.5t15.5 -22t22.5 -9.5t27.5 -2q16 0 29 2t22.5 9.5t14.5 22t5 38.5h88z" />
    <glyph glyph-name="uni043A" unicode="&#x43a;" horiz-adv-x="465" 
d="M178 414h20l93 292q7 21 32 21h107l25 -135h-51q-8 0 -10 -7l-58 -193l114 -392h-161l-81 302h-30v-302h-148v727h148v-313z" />
    <glyph glyph-name="uni043B" unicode="&#x43b;" horiz-adv-x="484" 
d="M454 0h-148v592h-79v-592h-192l-25 135h69v592h375v-727z" />
    <glyph glyph-name="uni043C" unicode="&#x43c;" horiz-adv-x="525" 
d="M171 342v-342h-141v727h153l79 -308l79 308h154v-727h-141v342l-92 -290z" />
    <glyph glyph-name="uni043D" unicode="&#x43d;" horiz-adv-x="435" 
d="M405 0h-148v290h-79v-290h-148v727h148v-312h79v312h148v-727z" />
    <glyph glyph-name="uni043E" unicode="&#x43e;" horiz-adv-x="436" 
d="M189 600q-13 0 -13 -14v-444q0 -8 2.5 -11.5t11.5 -3.5h55q9 0 11.5 3.5t2.5 11.5v444q0 14 -13 14h-57zM406 103q0 -21 -4.5 -39.5t-16.5 -32.5t-32 -22.5t-50 -8.5h-170q-30 0 -50 8.5t-32 22.5t-16.5 32.5t-4.5 39.5v530q0 43 23 68.5t74 25.5h182q51 0 74 -25.5
t23 -68.5v-530z" />
    <glyph glyph-name="uni043F" unicode="&#x43f;" horiz-adv-x="435" 
d="M405 0h-148v592h-79v-592h-148v727h375v-727z" />
    <glyph glyph-name="uni0440" unicode="&#x440;" horiz-adv-x="428" 
d="M174 600v-287h72q9 0 11.5 3.5t2.5 11.5v258q0 14 -13 14h-73zM401 287q0 -43 -23.5 -68.5t-74.5 -25.5h-129v-193h-144v727h273q51 0 74.5 -25t23.5 -68v-347z" />
    <glyph glyph-name="uni0441" unicode="&#x441;" horiz-adv-x="351" 
d="M141 0q-62 0 -86.5 25t-24.5 85v528q0 43 25.5 66t62.5 23h188l25 -135h-139q-13 0 -13 -14v-429q0 -14 13 -14h139l-26 -135h-164z" />
    <glyph glyph-name="uni0442" unicode="&#x442;" horiz-adv-x="362" 
d="M316 727l36 -135h-97v-592h-148v592h-97l38 135h268z" />
    <glyph glyph-name="uni0443" unicode="&#x443;" horiz-adv-x="475" 
d="M320 727h145l-155 -639q-5 -21 -12 -37t-19 -27.5t-30.5 -17.5t-45.5 -6h-114l-25 135h98q25 0 16 25l-168 567h154l88 -367z" />
    <glyph glyph-name="uni0444" unicode="&#x444;" horiz-adv-x="584" 
d="M229 60h-101q-47 0 -72.5 23.5t-25.5 71.5v417q0 48 25.5 71.5t72.5 23.5h101v60h128v-60h99q47 0 72.5 -23.5t25.5 -71.5v-417q0 -48 -25.5 -71.5t-72.5 -23.5h-99v-60h-128v60zM414 524q0 8 -2.5 11.5t-11.5 3.5h-43v-351h44q13 0 13 14v322zM172 203q0 -8 2.5 -11.5
t11.5 -3.5h43v351h-44q-13 0 -13 -14v-322z" />
    <glyph glyph-name="uni0445" unicode="&#x445;" horiz-adv-x="425" 
d="M312 378l103 -378h-147l-56 255l-55 -255h-147l103 378l-99 349h144l54 -257l56 257h143z" />
    <glyph glyph-name="uni0446" unicode="&#x446;" horiz-adv-x="475" 
d="M405 135h40v-242l-135 -25v132h-280v727h148v-592h79v592h148v-592z" />
    <glyph glyph-name="uni0447" unicode="&#x447;" horiz-adv-x="445" 
d="M267 727h148v-727h-148v292h-127q-62 0 -86 24.5t-24 84.5v326h148v-292q0 -8 2.5 -12t11.5 -4h75v308z" />
    <glyph glyph-name="uni0448" unicode="&#x448;" horiz-adv-x="662" 
d="M632 0h-602v727h148v-592h79v592h148v-592h79v592h148v-727z" />
    <glyph glyph-name="uni0449" unicode="&#x449;" horiz-adv-x="697" 
d="M632 135h40v-242l-135 -25v132h-507v727h148v-592h79v592h148v-592h79v592h148v-592z" />
    <glyph glyph-name="uni044A" unicode="&#x44a;" horiz-adv-x="535" 
d="M275 444h132q51 0 74.5 -25.5t23.5 -68.5v-257q0 -43 -23.5 -68t-74.5 -25h-280v592h-117l38 135h227v-283zM350 127q13 0 13 14v168q0 8 -2.5 11.5t-11.5 3.5h-74v-197h75z" />
    <glyph glyph-name="uni044B" unicode="&#x44b;" horiz-adv-x="644" 
d="M614 0h-148v727h148v-727zM178 727h-148v-727h280q51 0 74.5 25t23.5 68v257q0 43 -23.5 68.5t-74.5 25.5h-132v283zM178 127v197h74q9 0 11.5 -3.5t2.5 -11.5v-168q0 -14 -13 -14h-75z" />
    <glyph glyph-name="uni044C" unicode="&#x44c;" horiz-adv-x="438" 
d="M178 444h132q51 0 74.5 -25.5t23.5 -68.5v-257q0 -43 -23.5 -68t-74.5 -25h-280v727h148v-283zM253 127q13 0 13 14v168q0 8 -2.5 11.5t-11.5 3.5h-74v-197h75z" />
    <glyph glyph-name="uni044D" unicode="&#x44d;" horiz-adv-x="351" 
d="M172 293h-120v125h120v160q0 14 -13 14h-139l25 135h188q37 0 62.5 -23t25.5 -66v-528q0 -60 -24.5 -85t-86.5 -25h-164l-26 135h139q13 0 13 14v144z" />
    <glyph glyph-name="uni044E" unicode="&#x44e;" horiz-adv-x="660" 
d="M630 103q0 -21 -4.5 -39.5t-16.5 -32.5t-32 -22.5t-50 -8.5h-170q-30 0 -50 8.5t-32 22.5t-16.5 32.5t-4.5 39.5v197h-79v-300h-145v727h145v-301h79v207q0 43 23 68.5t74 25.5h182q51 0 74 -25.5t23 -68.5v-530zM413 600q-13 0 -13 -14v-444q0 -8 2.5 -11.5t11.5 -3.5
h55q9 0 11.5 3.5t2.5 11.5v444q0 14 -13 14h-57z" />
    <glyph glyph-name="uni044F" unicode="&#x44f;" horiz-adv-x="433" 
d="M30 630q0 97 97 97h276v-727h-142v229h-19q-20 0 -27.5 -15.5t-11.5 -32.5l-44 -181h-148l47 183q4 17 13 32t26 21q-27 0 -47 16.5t-20 44.5v333zM187 600q-14 0 -14 -15v-222q0 -15 14 -15h74v252h-74z" />
    <glyph glyph-name="uni0451" unicode="&#x451;" horiz-adv-x="357" 
d="M30 727h282l25 -135h-158v-174h120v-125h-120v-158h152l-25 -135h-276v727zM7 828q0 31 21 53t53 22q31 0 52 -22t21 -53t-21 -53t-52 -22q-32 0 -53 22t-21 53zM205 828q0 31 21 53t52 22t52.5 -22t21.5 -53t-21.5 -53t-52.5 -22t-52 22t-21 53z" />
    <glyph glyph-name="endash" unicode="&#x2013;" horiz-adv-x="483" 
d="M40 411h413l-10 -119h-413z" />
    <glyph glyph-name="emdash" unicode="&#x2014;" horiz-adv-x="633" 
d="M40 411h563l-10 -119h-563z" />
    <glyph glyph-name="quoteleft" unicode="&#x2018;" horiz-adv-x="198" 
d="M183 460h-90l-78 285h121z" />
    <glyph glyph-name="quoteright" unicode="&#x2019;" horiz-adv-x="198" 
d="M62 745h121l-78 -285h-90z" />
    <glyph glyph-name="quotesinglbase" unicode="&#x201a;" horiz-adv-x="198" 
d="M62 145h121l-78 -285h-90z" />
    <glyph glyph-name="quotedblleft" unicode="&#x201c;" horiz-adv-x="359" 
d="M336 460h-92l-56 285h124zM182 460h-93l-69 285h123z" />
    <glyph glyph-name="quotedblright" unicode="&#x201d;" horiz-adv-x="359" 
d="M47 745h124l-56 -285h-92zM216 745h123l-69 -285h-93z" />
    <glyph glyph-name="quotedblbase" unicode="&#x201e;" horiz-adv-x="356" 
d="M46 145h121l-54 -285h-88zM216 145h122l-72 -285h-92z" />
    <glyph glyph-name="dagger" unicode="&#x2020;" horiz-adv-x="478" 
d="M448 509q0 -30 -21 -52t-52 -22q-22 0 -40 13t-28 32q-18 -1 -24.5 -23.5t-0.5 -49t25.5 -48.5t54.5 -22q-17 0 -32 -18t-27 -47t-21.5 -66t-16.5 -76q-18 -91 -27 -206q-9 115 -26 206q-7 39 -16.5 76t-21 66t-25.5 47t-31 18q22 0 38 10.5t26 26t14 33.5t2 34t-9 27
t-19 12q-9 -19 -26.5 -32t-40.5 -13q-31 0 -52 22t-21 52t21 52.5t52 22.5q23 0 43.5 -15.5t25.5 -38.5q20 3 29 18.5t7 50.5q-19 10 -30.5 28t-11.5 41q0 30 21.5 51t50.5 21q30 0 52 -21t22 -51q0 -23 -12 -41t-30 -28q-3 -35 7 -50.5t30 -19.5q5 23 25 39t43 16
q31 0 52 -22.5t21 -52.5z" />
    <glyph glyph-name="daggerdbl" unicode="&#x2021;" horiz-adv-x="478" 
d="M448 205q0 -30 -21 -52.5t-52 -22.5q-23 0 -43 16t-25 39q-20 -4 -30 -19.5t-7 -50.5q18 -10 30 -28t12 -41q0 -30 -22 -51t-52 -21q-29 0 -50.5 21t-21.5 51q0 23 11.5 41t30.5 28q2 35 -7 50.5t-29 18.5q-5 -23 -25.5 -38.5t-43.5 -15.5q-31 0 -52 22.5t-21 52.5t21 52
t52 22q23 0 40.5 -13t26.5 -32q18 1 25 20.5t1 42.5t-25 41.5t-53 18.5q34 0 53 18.5t25 41.5t-1 42t-25 21q-9 -19 -26.5 -32t-40.5 -13q-31 0 -52 22t-21 52t21 52.5t52 22.5q23 0 43.5 -15.5t25.5 -38.5q20 3 29 18.5t7 50.5q-19 10 -30.5 28t-11.5 41q0 30 21.5 51
t50.5 21q30 0 52 -21t22 -51q0 -23 -12 -41t-30 -28q-3 -35 7 -50.5t30 -19.5q5 23 25 39t43 16q31 0 52 -22.5t21 -52.5t-21 -52t-52 -22q-22 0 -40 13t-28 32q-18 -1 -24.5 -20.5t-0.5 -42t25.5 -41.5t54.5 -19q-35 0 -54.5 -19t-25.5 -41.5t0.5 -42t24.5 -20.5
q10 19 28 32t40 13q31 0 52 -22t21 -52z" />
    <glyph glyph-name="bullet" unicode="&#x2022;" horiz-adv-x="408" 
d="M30 332q0 37 13.5 69t37 56t55.5 37.5t68 13.5t67.5 -13.5t55.5 -37.5t37.5 -56t13.5 -69q0 -36 -13.5 -68t-37.5 -56t-55.5 -38t-67.5 -14t-68 14t-55.5 38t-37 56t-13.5 68z" />
    <glyph glyph-name="ellipsis" unicode="&#x2026;" horiz-adv-x="688" 
d="M50 67q0 32 23 55t55 23t55 -23t23 -55t-23 -54.5t-55 -22.5t-55 22.5t-23 54.5zM266 67q0 32 23 55t55 23t55 -23t23 -55t-23 -54.5t-55 -22.5t-55 22.5t-23 54.5zM482 67q0 32 23 55t55 23t55 -23t23 -55t-23 -54.5t-55 -22.5t-55 22.5t-23 54.5z" />
    <glyph glyph-name="perthousand" unicode="&#x2030;" horiz-adv-x="1005" 
d="M820 177q0 -28 1 -45.5t4 -27t8 -12.5t13 -3q7 0 12.5 3t8.5 12.5t4.5 27t1.5 45.5t-1.5 45.5t-4.5 27t-8.5 12.5t-12.5 3q-8 0 -13 -3t-8 -12.5t-4 -27t-1 -45.5zM975 177q0 -59 -9 -95.5t-26 -57t-40.5 -28t-53.5 -7.5t-53.5 7.5t-40.5 28t-26 57t-9 95.5q0 58 9 95
t26 57.5t40.5 28t53.5 7.5t53.5 -7.5t40.5 -28t26 -57.5t9 -95zM517 177q0 -28 1 -45.5t4 -27t8 -12.5t13 -3q7 0 12.5 3t8.5 12.5t4.5 27t1.5 45.5t-1.5 45.5t-4.5 27t-8.5 12.5t-12.5 3q-8 0 -13 -3t-8 -12.5t-4 -27t-1 -45.5zM672 177q0 -59 -9 -95.5t-26 -57t-40.5 -28
t-53.5 -7.5t-53.5 7.5t-40.5 28t-26 57t-9 95.5q0 58 9 95t26 57.5t40.5 28t53.5 7.5t53.5 -7.5t40.5 -28t26 -57.5t9 -95zM132 549q0 -28 1.5 -45.5t4.5 -27t8 -12.5t13 -3q7 0 12 3t8 12.5t4.5 27t1.5 45.5t-1.5 45.5t-4.5 27t-8 12.5t-12 3q-8 0 -13 -3t-8 -12.5
t-4.5 -27t-1.5 -45.5zM288 549q0 -59 -9 -95.5t-26 -57t-40.5 -28t-53.5 -7.5t-53.5 7.5t-40.5 28t-26 57t-9 95.5q0 58 9 95t26 57.5t40.5 28t53.5 7.5t53.5 -7.5t40.5 -28t26 -57.5t9 -95zM546 732l-284 -737h-108l287 737h105z" />
    <glyph glyph-name="guilsinglleft" unicode="&#x2039;" horiz-adv-x="264" 
d="M132 471h122l-121 -198l121 -198h-122l-117 198z" />
    <glyph glyph-name="guilsinglright" unicode="&#x203a;" horiz-adv-x="265" 
d="M255 273l-121 -198h-119l118 198l-118 198h119z" />
    <glyph glyph-name="Euro" unicode="&#x20ac;" horiz-adv-x="393" 
d="M373 135l-27 -135h-201q-62 0 -86.5 25t-24.5 85v124h-34v91h34v57h-34v92h34v164q0 43 25.5 66t62.5 23h224l27 -135h-180q-13 0 -13 -14v-104h183l-25 -92h-158v-57h148l-25 -91h-123v-85q0 -14 13 -14h180z" />
    <glyph glyph-name="trademark" unicode="&#x2122;" horiz-adv-x="582" 
d="M225 661h-55v-298h-85v298h-55l20 66h155zM552 363h-88v193l-57 -164l-63 164v-193h-82v364h88l57 -159l51 159h94v-364z" />
    </font>
</defs>
</svg>
